<svg width="375" height="315" viewBox="0 0 375 315" fill="none" xmlns="http://www.w3.org/2000/svg">
<g filter="url(#filter0_f_132_1151)">
<rect x="40" y="113" width="295" height="152" rx="20" fill="#240F4F"/>
</g>
<g clip-path="url(#clip0_132_1151)">
<rect x="24" width="327" height="295" fill="url(#paint0_linear_132_1151)"/>
<g style="mix-blend-mode:soft-light" opacity="0.2">
<path opacity="0.25" d="M244.056 295C321.288 295 383.896 280.435 383.896 262.467C383.896 244.5 321.288 229.934 244.056 229.934C166.824 229.934 104.215 244.5 104.215 262.467C104.215 280.435 166.824 295 244.056 295Z" fill="#042030"/>
<path d="M353.574 105.465L244.056 142.883L134.426 105.465L82 181.634L244.056 237.04L406 181.634L353.574 105.465Z" fill="#4E2999"/>
<path opacity="0.45" d="M101.105 178.525L235.503 229.934L189.297 184.188C189.297 184.188 113.434 165.867 101.105 178.525Z" fill="#240F4F"/>
<path opacity="0.45" d="M387.007 178.525L252.608 229.934L298.815 184.188C298.703 184.188 374.566 165.867 387.007 178.525Z" fill="#240F4F"/>
<path d="M244.056 237.04L82 181.634V188.852L244.056 244.257L406 188.852V181.634L244.056 237.04Z" fill="#994EF8"/>
<path d="M157.752 270.35L176.523 221.162L236.947 241.815L157.752 270.35Z" fill="#3B1E77"/>
<path opacity="0.45" d="M162.972 256.138L236.947 241.815L176.523 221.162L162.972 256.138Z" fill="#3B1E77"/>
<path d="M244.056 239.261L157.752 270.35L164.194 277.124L244.056 248.699L323.806 277.124L330.359 270.35L244.056 239.261Z" fill="#994EF8"/>
<path d="M330.359 270.35L311.477 221.162L251.053 241.815L330.359 270.35Z" fill="#3B1E77"/>
<path opacity="0.45" d="M325.028 256.138L251.053 241.815L311.477 221.162L325.028 256.138Z" fill="#3B1E77"/>
<path d="M244.055 248.699C247.307 248.699 249.942 246.064 249.942 242.814C249.942 239.564 247.307 236.929 244.055 236.929C240.804 236.929 238.169 239.564 238.169 242.814C238.169 246.064 240.804 248.699 244.055 248.699Z" fill="white" fill-opacity="0.5"/>
<path d="M348.909 105.465L244.056 157.651L139.203 105.465C134.427 111.794 95.9952 175.861 95.9952 175.861C96.4395 175.861 96.7728 175.972 97.217 175.972C193.628 185.632 220.397 215.944 229.283 223.272C238.169 230.711 244.167 229.934 244.167 229.934C244.167 229.934 250.165 230.711 259.05 223.272C267.936 215.944 294.705 185.632 391.116 175.972C391.561 175.972 391.894 175.861 392.338 175.861C392.116 175.861 353.574 111.905 348.909 105.465Z" fill="#F5B304"/>
<path d="M392.116 175.861C391.672 175.861 391.338 175.972 390.894 175.972C294.483 185.632 267.714 215.944 258.828 223.272C249.942 230.711 243.944 229.934 243.944 229.934C243.944 229.934 237.947 230.711 229.061 223.272C220.175 215.944 193.406 185.632 96.9949 175.972C96.5506 175.972 96.2173 175.861 95.7731 175.861C94.9955 177.082 95.7731 177.97 95.7731 177.97C193.184 187.408 219.064 217.831 227.95 225.271C236.836 232.599 243.833 232.044 243.833 232.044C243.833 232.044 250.831 232.599 259.717 225.271C268.603 217.942 294.483 187.519 391.894 177.97C392.116 177.97 392.893 177.082 392.116 175.861Z" fill="#994EF8"/>
<path d="M344.91 99.3581C291.262 86.4782 243.944 130.559 243.944 130.559C243.944 130.559 196.627 86.4782 142.979 99.3581C142.979 99.3581 127.762 122.675 106.769 162.314C106.769 162.314 212.4 174.195 243.944 218.498C275.489 174.195 381.12 162.314 381.12 162.314C360.127 122.675 344.91 99.3581 344.91 99.3581Z" fill="#F5EFFB"/>
<path d="M381.12 162.314C381.12 162.314 275.489 174.195 243.944 218.498C212.511 174.195 106.88 162.314 106.88 162.314C106.88 162.314 106.88 165.867 100.993 172.863C100.993 172.863 196.85 179.747 231.726 219.497C239.946 228.824 243.944 227.713 243.944 227.713C243.944 227.713 248.054 228.824 256.163 219.497C290.928 179.747 386.896 172.863 386.896 172.863C381.12 165.756 381.12 162.314 381.12 162.314Z" fill="#DFCBF4"/>
<path d="M338.912 104.022C338.912 104.022 298.815 93.8064 243.944 136.332C189.185 93.9174 148.977 104.022 148.977 104.022L121.875 156.652C204.291 162.314 243.944 203.952 243.944 203.952C243.944 203.952 283.597 162.314 366.014 156.652L338.912 104.022ZM244.056 198.956C244.056 198.956 206.957 160.982 128.317 153.543L151.087 106.242C151.087 106.242 190.518 98.5809 244.056 138.775C297.593 98.5809 337.024 106.242 337.024 106.242L359.794 153.543C281.154 160.982 244.056 198.956 244.056 198.956Z" fill="#863ED5"/>
<path opacity="0.2" d="M254.163 175.965C268.973 165.046 315.253 140.885 346.354 144.216" stroke="#863ED5" stroke-width="3" stroke-linecap="round"/>
<path opacity="0.2" d="M254.163 145.326C267.307 135.038 301.48 114.882 333.025 116.555" stroke="#863ED5" stroke-width="3" stroke-linecap="round"/>
<path opacity="0.2" d="M254.163 160.871C268.418 149.792 305.479 128.084 339.689 129.887" stroke="#863ED5" stroke-width="3" stroke-linecap="round"/>
<path opacity="0.2" d="M235.281 175.965C220.471 165.046 174.191 140.885 143.09 144.216" stroke="#863ED5" stroke-width="3" stroke-linecap="round"/>
<path opacity="0.2" d="M235.281 145.326C222.137 135.038 187.964 114.882 156.419 116.555" stroke="#863ED5" stroke-width="3" stroke-linecap="round"/>
<path opacity="0.2" d="M235.281 160.871C221.026 149.792 183.965 128.084 149.755 129.887" stroke="#863ED5" stroke-width="3" stroke-linecap="round"/>
<path d="M244.056 130.559C244.056 130.559 245.166 126.672 247.277 127.783C247.277 127.783 245.944 190.739 248.165 215.278C248.721 221.384 254.052 229.712 256.162 232.821H253.386L252.608 235.375C252.608 235.375 244.389 221.496 244.056 216.055C242.389 191.627 243.278 136.443 244.056 130.559Z" fill="#54DAF5"/>
</g>
</g>
<path d="M125.327 53.308H117.761L116.461 57H113.367L119.841 38.904H123.273L129.747 57H126.627L125.327 53.308ZM124.495 50.89L121.557 42.492L118.593 50.89H124.495ZM135.526 37.76V57H132.562V37.76H135.526ZM150.416 46.34V48.836H139.73V46.34H150.416ZM164.299 47.718C165.269 47.8913 166.093 48.4027 166.769 49.252C167.445 50.1013 167.783 51.0633 167.783 52.138C167.783 53.0567 167.54 53.8887 167.055 54.634C166.587 55.362 165.902 55.9427 165.001 56.376C164.099 56.792 163.051 57 161.855 57H154.627V38.93H161.517C162.747 38.93 163.805 39.138 164.689 39.554C165.573 39.97 166.24 40.5333 166.691 41.244C167.141 41.9373 167.367 42.7173 167.367 43.584C167.367 44.624 167.089 45.4907 166.535 46.184C165.98 46.8773 165.235 47.3887 164.299 47.718ZM157.591 46.522H161.257C162.227 46.522 162.981 46.3053 163.519 45.872C164.073 45.4213 164.351 44.78 164.351 43.948C164.351 43.1333 164.073 42.5007 163.519 42.05C162.981 41.582 162.227 41.348 161.257 41.348H157.591V46.522ZM161.595 54.582C162.6 54.582 163.389 54.3393 163.961 53.854C164.533 53.3687 164.819 52.6927 164.819 51.826C164.819 50.942 164.515 50.24 163.909 49.72C163.302 49.2 162.496 48.94 161.491 48.94H157.591V54.582H161.595ZM170.016 49.772C170.016 48.3333 170.31 47.0593 170.9 45.95C171.506 44.8407 172.321 43.9827 173.344 43.376C174.384 42.752 175.528 42.44 176.776 42.44C177.902 42.44 178.882 42.6653 179.714 43.116C180.563 43.5493 181.239 44.0953 181.742 44.754V42.674H184.732V57H181.742V54.868C181.239 55.544 180.554 56.1073 179.688 56.558C178.821 57.0087 177.833 57.234 176.724 57.234C175.493 57.234 174.366 56.922 173.344 56.298C172.321 55.6567 171.506 54.7727 170.9 53.646C170.31 52.502 170.016 51.2107 170.016 49.772ZM181.742 49.824C181.742 48.836 181.534 47.978 181.118 47.25C180.719 46.522 180.19 45.9673 179.532 45.586C178.873 45.2047 178.162 45.014 177.4 45.014C176.637 45.014 175.926 45.2047 175.268 45.586C174.609 45.95 174.072 46.496 173.656 47.224C173.257 47.9347 173.058 48.784 173.058 49.772C173.058 50.76 173.257 51.6267 173.656 52.372C174.072 53.1173 174.609 53.6893 175.268 54.088C175.944 54.4693 176.654 54.66 177.4 54.66C178.162 54.66 178.873 54.4693 179.532 54.088C180.19 53.7067 180.719 53.152 181.118 52.424C181.534 51.6787 181.742 50.812 181.742 49.824ZM187.637 49.772C187.637 48.3333 187.931 47.0593 188.521 45.95C189.127 44.8407 189.942 43.9827 190.965 43.376C192.005 42.752 193.157 42.44 194.423 42.44C195.532 42.44 196.511 42.6653 197.361 43.116C198.227 43.5667 198.895 44.1127 199.363 44.754V42.674H202.353V63.812H199.363V54.92C198.895 55.5613 198.219 56.1073 197.335 56.558C196.451 57.0087 195.445 57.234 194.319 57.234C193.088 57.234 191.961 56.922 190.939 56.298C189.933 55.6567 189.127 54.7727 188.521 53.646C187.931 52.502 187.637 51.2107 187.637 49.772ZM199.363 49.824C199.363 48.836 199.155 47.978 198.739 47.25C198.34 46.522 197.811 45.9673 197.153 45.586C196.494 45.2047 195.783 45.014 195.021 45.014C194.258 45.014 193.547 45.2047 192.889 45.586C192.23 45.95 191.693 46.496 191.277 47.224C190.878 47.9347 190.679 48.784 190.679 49.772C190.679 50.76 190.878 51.6267 191.277 52.372C191.693 53.1173 192.23 53.6893 192.889 54.088C193.565 54.4693 194.275 54.66 195.021 54.66C195.783 54.66 196.494 54.4693 197.153 54.088C197.811 53.7067 198.34 53.152 198.739 52.424C199.155 51.6787 199.363 50.812 199.363 49.824ZM205.258 49.772C205.258 48.3333 205.553 47.0593 206.142 45.95C206.749 44.8407 207.563 43.9827 208.586 43.376C209.626 42.752 210.77 42.44 212.018 42.44C213.145 42.44 214.124 42.6653 214.956 43.116C215.805 43.5493 216.481 44.0953 216.984 44.754V42.674H219.974V57H216.984V54.868C216.481 55.544 215.797 56.1073 214.93 56.558C214.063 57.0087 213.075 57.234 211.966 57.234C210.735 57.234 209.609 56.922 208.586 56.298C207.563 55.6567 206.749 54.7727 206.142 53.646C205.553 52.502 205.258 51.2107 205.258 49.772ZM216.984 49.824C216.984 48.836 216.776 47.978 216.36 47.25C215.961 46.522 215.433 45.9673 214.774 45.586C214.115 45.2047 213.405 45.014 212.642 45.014C211.879 45.014 211.169 45.2047 210.51 45.586C209.851 45.95 209.314 46.496 208.898 47.224C208.499 47.9347 208.3 48.784 208.3 49.772C208.3 50.76 208.499 51.6267 208.898 52.372C209.314 53.1173 209.851 53.6893 210.51 54.088C211.186 54.4693 211.897 54.66 212.642 54.66C213.405 54.66 214.115 54.4693 214.774 54.088C215.433 53.7067 215.961 53.152 216.36 52.424C216.776 51.6787 216.984 50.812 216.984 49.824ZM226.831 44.754C227.264 44.026 227.836 43.4627 228.547 43.064C229.275 42.648 230.133 42.44 231.121 42.44V45.508H230.367C229.206 45.508 228.322 45.8027 227.715 46.392C227.126 46.9813 226.831 48.004 226.831 49.46V57H223.867V42.674H226.831V44.754ZM232.858 49.772C232.858 48.3333 233.152 47.0593 233.742 45.95C234.348 44.8407 235.163 43.9827 236.186 43.376C237.226 42.752 238.37 42.44 239.618 42.44C240.744 42.44 241.724 42.6653 242.556 43.116C243.405 43.5493 244.081 44.0953 244.584 44.754V42.674H247.574V57H244.584V54.868C244.081 55.544 243.396 56.1073 242.53 56.558C241.663 57.0087 240.675 57.234 239.566 57.234C238.335 57.234 237.208 56.922 236.186 56.298C235.163 55.6567 234.348 54.7727 233.742 53.646C233.152 52.502 232.858 51.2107 232.858 49.772ZM244.584 49.824C244.584 48.836 244.376 47.978 243.96 47.25C243.561 46.522 243.032 45.9673 242.374 45.586C241.715 45.2047 241.004 45.014 240.242 45.014C239.479 45.014 238.768 45.2047 238.11 45.586C237.451 45.95 236.914 46.496 236.498 47.224C236.099 47.9347 235.9 48.784 235.9 49.772C235.9 50.76 236.099 51.6267 236.498 52.372C236.914 53.1173 237.451 53.6893 238.11 54.088C238.786 54.4693 239.496 54.66 240.242 54.66C241.004 54.66 241.715 54.4693 242.374 54.088C243.032 53.7067 243.561 53.152 243.96 52.424C244.376 51.6787 244.584 50.812 244.584 49.824Z" fill="white"/>
<path d="M168.325 89.112C167.578 89.112 166.906 88.984 166.309 88.728C165.712 88.4613 165.242 88.088 164.901 87.608C164.56 87.128 164.389 86.568 164.389 85.928H166.341C166.384 86.408 166.57 86.8027 166.901 87.112C167.242 87.4213 167.717 87.576 168.325 87.576C168.954 87.576 169.445 87.4267 169.797 87.128C170.149 86.8187 170.325 86.424 170.325 85.944C170.325 85.5707 170.213 85.2667 169.989 85.032C169.776 84.7973 169.504 84.616 169.173 84.488C168.853 84.36 168.405 84.2213 167.829 84.072C167.104 83.88 166.512 83.688 166.053 83.496C165.605 83.2933 165.221 82.984 164.901 82.568C164.581 82.152 164.421 81.5973 164.421 80.904C164.421 80.264 164.581 79.704 164.901 79.224C165.221 78.744 165.669 78.376 166.245 78.12C166.821 77.864 167.488 77.736 168.245 77.736C169.322 77.736 170.202 78.008 170.885 78.552C171.578 79.0853 171.962 79.8213 172.037 80.76H170.021C169.989 80.3547 169.797 80.008 169.445 79.72C169.093 79.432 168.629 79.288 168.053 79.288C167.53 79.288 167.104 79.4213 166.773 79.688C166.442 79.9547 166.277 80.3387 166.277 80.84C166.277 81.1813 166.378 81.464 166.581 81.688C166.794 81.9013 167.061 82.072 167.381 82.2C167.701 82.328 168.138 82.4667 168.693 82.616C169.429 82.8187 170.026 83.0213 170.485 83.224C170.954 83.4267 171.349 83.7413 171.669 84.168C172 84.584 172.165 85.144 172.165 85.848C172.165 86.4133 172.01 86.9467 171.701 87.448C171.402 87.9493 170.96 88.3547 170.373 88.664C169.797 88.9627 169.114 89.112 168.325 89.112ZM175.245 79.016C174.915 79.016 174.637 78.904 174.413 78.68C174.189 78.456 174.077 78.1787 174.077 77.848C174.077 77.5173 174.189 77.24 174.413 77.016C174.637 76.792 174.915 76.68 175.245 76.68C175.565 76.68 175.837 76.792 176.061 77.016C176.285 77.24 176.397 77.5173 176.397 77.848C176.397 78.1787 176.285 78.456 176.061 78.68C175.837 78.904 175.565 79.016 175.245 79.016ZM176.141 80.184V89H174.317V80.184H176.141ZM182.088 80.04C182.771 80.04 183.373 80.1787 183.896 80.456C184.429 80.7227 184.845 81.0587 185.144 81.464V80.184H186.984V89.144C186.984 89.9547 186.813 90.6747 186.472 91.304C186.131 91.944 185.635 92.4453 184.984 92.808C184.344 93.1707 183.576 93.352 182.68 93.352C181.485 93.352 180.493 93.0693 179.704 92.504C178.915 91.9493 178.467 91.192 178.36 90.232H180.168C180.307 90.6907 180.6 91.0587 181.048 91.336C181.507 91.624 182.051 91.768 182.68 91.768C183.416 91.768 184.008 91.544 184.456 91.096C184.915 90.648 185.144 89.9973 185.144 89.144V87.672C184.835 88.088 184.413 88.44 183.88 88.728C183.357 89.0053 182.76 89.144 182.088 89.144C181.32 89.144 180.616 88.952 179.976 88.568C179.347 88.1733 178.845 87.6293 178.472 86.936C178.109 86.232 177.928 85.4373 177.928 84.552C177.928 83.6667 178.109 82.8827 178.472 82.2C178.845 81.5173 179.347 80.9893 179.976 80.616C180.616 80.232 181.32 80.04 182.088 80.04ZM185.144 84.584C185.144 83.976 185.016 83.448 184.76 83C184.515 82.552 184.189 82.2107 183.784 81.976C183.379 81.7413 182.941 81.624 182.472 81.624C182.003 81.624 181.565 81.7413 181.16 81.976C180.755 82.2 180.424 82.536 180.168 82.984C179.923 83.4213 179.8 83.944 179.8 84.552C179.8 85.16 179.923 85.6933 180.168 86.152C180.424 86.6107 180.755 86.9627 181.16 87.208C181.576 87.4427 182.013 87.56 182.472 87.56C182.941 87.56 183.379 87.4427 183.784 87.208C184.189 86.9733 184.515 86.632 184.76 86.184C185.016 85.7253 185.144 85.192 185.144 84.584ZM190.308 79.016C189.977 79.016 189.7 78.904 189.476 78.68C189.252 78.456 189.14 78.1787 189.14 77.848C189.14 77.5173 189.252 77.24 189.476 77.016C189.7 76.792 189.977 76.68 190.308 76.68C190.628 76.68 190.9 76.792 191.124 77.016C191.348 77.24 191.46 77.5173 191.46 77.848C191.46 78.1787 191.348 78.456 191.124 78.68C190.9 78.904 190.628 79.016 190.308 79.016ZM191.204 80.184V89H189.38V80.184H191.204ZM195.422 81.464C195.689 81.016 196.041 80.6693 196.478 80.424C196.926 80.168 197.454 80.04 198.062 80.04V81.928H197.598C196.884 81.928 196.34 82.1093 195.966 82.472C195.604 82.8347 195.422 83.464 195.422 84.36V89H193.598V80.184H195.422V81.464Z" fill="white"/>
<line x1="81" y1="110.5" x2="281" y2="110.5" stroke="white" stroke-opacity="0.35"/>
<path d="M123.798 132.27V142H122.202V135.336L119.234 142H118.128L115.146 135.336V142H113.55V132.27H115.272L118.688 139.9L122.09 132.27H123.798ZM131.762 140.012H127.688L126.988 142H125.322L128.808 132.256H130.656L134.142 142H132.462L131.762 140.012ZM131.314 138.71L129.732 134.188L128.136 138.71H131.314ZM138.835 132.27C139.871 132.27 140.777 132.471 141.551 132.872C142.335 133.264 142.937 133.833 143.357 134.58C143.787 135.317 144.001 136.181 144.001 137.17C144.001 138.159 143.787 139.018 143.357 139.746C142.937 140.474 142.335 141.034 141.551 141.426C140.777 141.809 139.871 142 138.835 142H135.657V132.27H138.835ZM138.835 140.698C139.974 140.698 140.847 140.39 141.453 139.774C142.06 139.158 142.363 138.29 142.363 137.17C142.363 136.041 142.06 135.159 141.453 134.524C140.847 133.889 139.974 133.572 138.835 133.572H137.253V140.698H138.835ZM147.179 132.27V142H145.583V132.27H147.179ZM157.269 142H155.673L150.871 134.734V142H149.275V132.256H150.871L155.673 139.508V132.256H157.269V142ZM165.23 140.012H161.156L160.456 142H158.79L162.276 132.256H164.124L167.61 142H165.93L165.23 140.012ZM164.782 138.71L163.2 134.188L161.604 138.71H164.782Z" fill="white"/>
<circle cx="175.5" cy="137.5" r="2" fill="white" fill-opacity="0.35"/>
<path d="M184.222 139.83C185.118 139.055 185.823 138.421 186.336 137.926C186.859 137.422 187.293 136.899 187.638 136.358C187.983 135.817 188.156 135.275 188.156 134.734C188.156 134.174 188.021 133.735 187.75 133.418C187.489 133.101 187.073 132.942 186.504 132.942C185.953 132.942 185.524 133.119 185.216 133.474C184.917 133.819 184.759 134.286 184.74 134.874H183.2C183.228 133.81 183.545 132.998 184.152 132.438C184.768 131.869 185.547 131.584 186.49 131.584C187.507 131.584 188.301 131.864 188.87 132.424C189.449 132.984 189.738 133.731 189.738 134.664C189.738 135.336 189.565 135.985 189.22 136.61C188.884 137.226 188.478 137.781 188.002 138.276C187.535 138.761 186.938 139.326 186.21 139.97L185.58 140.53H190.018V141.86H183.214V140.698L184.222 139.83ZM193.142 136.666C192.171 136.181 191.686 135.415 191.686 134.37C191.686 133.866 191.812 133.404 192.064 132.984C192.316 132.564 192.694 132.233 193.198 131.99C193.702 131.738 194.318 131.612 195.046 131.612C195.765 131.612 196.376 131.738 196.88 131.99C197.393 132.233 197.776 132.564 198.028 132.984C198.28 133.404 198.406 133.866 198.406 134.37C198.406 134.893 198.271 135.355 198 135.756C197.739 136.148 197.389 136.451 196.95 136.666C197.482 136.862 197.902 137.184 198.21 137.632C198.518 138.071 198.672 138.589 198.672 139.186C198.672 139.793 198.518 140.329 198.21 140.796C197.902 141.263 197.473 141.622 196.922 141.874C196.371 142.126 195.746 142.252 195.046 142.252C194.346 142.252 193.721 142.126 193.17 141.874C192.629 141.622 192.204 141.263 191.896 140.796C191.588 140.329 191.434 139.793 191.434 139.186C191.434 138.579 191.588 138.057 191.896 137.618C192.204 137.179 192.619 136.862 193.142 136.666ZM196.88 134.566C196.88 134.043 196.717 133.642 196.39 133.362C196.063 133.082 195.615 132.942 195.046 132.942C194.486 132.942 194.043 133.082 193.716 133.362C193.389 133.642 193.226 134.048 193.226 134.58C193.226 135.047 193.394 135.429 193.73 135.728C194.075 136.017 194.514 136.162 195.046 136.162C195.578 136.162 196.017 136.013 196.362 135.714C196.707 135.415 196.88 135.033 196.88 134.566ZM195.046 137.366C194.43 137.366 193.926 137.52 193.534 137.828C193.151 138.127 192.96 138.561 192.96 139.13C192.96 139.662 193.147 140.096 193.52 140.432C193.893 140.759 194.402 140.922 195.046 140.922C195.681 140.922 196.18 140.754 196.544 140.418C196.917 140.082 197.104 139.653 197.104 139.13C197.104 138.57 196.913 138.136 196.53 137.828C196.157 137.52 195.662 137.366 195.046 137.366ZM205.836 134.16C205.733 133.731 205.546 133.409 205.276 133.194C205.005 132.979 204.627 132.872 204.142 132.872C203.404 132.872 202.854 133.157 202.49 133.726C202.126 134.286 201.934 135.219 201.916 136.526C202.158 136.115 202.513 135.798 202.98 135.574C203.446 135.35 203.95 135.238 204.492 135.238C205.108 135.238 205.649 135.373 206.116 135.644C206.592 135.905 206.96 136.288 207.222 136.792C207.492 137.296 207.628 137.898 207.628 138.598C207.628 139.251 207.497 139.835 207.236 140.348C206.984 140.861 206.606 141.267 206.102 141.566C205.598 141.855 204.991 142 204.282 142C203.32 142 202.564 141.79 202.014 141.37C201.472 140.941 201.09 140.339 200.866 139.564C200.651 138.789 200.544 137.823 200.544 136.666C200.544 133.25 201.748 131.542 204.156 131.542C205.089 131.542 205.822 131.794 206.354 132.298C206.895 132.802 207.212 133.423 207.306 134.16H205.836ZM204.142 136.582C203.572 136.582 203.087 136.755 202.686 137.1C202.294 137.436 202.098 137.926 202.098 138.57C202.098 139.214 202.28 139.727 202.644 140.11C203.017 140.483 203.535 140.67 204.198 140.67C204.786 140.67 205.248 140.488 205.584 140.124C205.929 139.76 206.102 139.275 206.102 138.668C206.102 138.033 205.934 137.529 205.598 137.156C205.271 136.773 204.786 136.582 204.142 136.582ZM217.615 142.098C216.71 142.098 215.874 141.888 215.109 141.468C214.353 141.039 213.751 140.446 213.303 139.69C212.864 138.925 212.645 138.066 212.645 137.114C212.645 136.162 212.864 135.308 213.303 134.552C213.751 133.796 214.353 133.208 215.109 132.788C215.874 132.359 216.71 132.144 217.615 132.144C218.53 132.144 219.365 132.359 220.121 132.788C220.886 133.208 221.488 133.796 221.927 134.552C222.366 135.308 222.585 136.162 222.585 137.114C222.585 138.066 222.366 138.925 221.927 139.69C221.488 140.446 220.886 141.039 220.121 141.468C219.365 141.888 218.53 142.098 217.615 142.098ZM217.615 140.712C218.259 140.712 218.833 140.567 219.337 140.278C219.841 139.979 220.233 139.559 220.513 139.018C220.802 138.467 220.947 137.833 220.947 137.114C220.947 136.395 220.802 135.765 220.513 135.224C220.233 134.683 219.841 134.267 219.337 133.978C218.833 133.689 218.259 133.544 217.615 133.544C216.971 133.544 216.397 133.689 215.893 133.978C215.389 134.267 214.992 134.683 214.703 135.224C214.423 135.765 214.283 136.395 214.283 137.114C214.283 137.833 214.423 138.467 214.703 139.018C214.992 139.559 215.389 139.979 215.893 140.278C216.397 140.567 216.971 140.712 217.615 140.712ZM231.365 132.27L228.145 138.472V142H226.549V138.472L223.315 132.27H225.093L227.347 137.044L229.601 132.27H231.365ZM238.498 140.012H234.424L233.724 142H232.058L235.544 132.256H237.392L240.878 142H239.198L238.498 140.012ZM238.05 138.71L236.468 134.188L234.872 138.71H238.05ZM248.68 132.27V133.572H246.09V142H244.494V133.572H241.89V132.27H248.68Z" fill="white"/>
<defs>
<filter id="filter0_f_132_1151" x="-10" y="63" width="395" height="252" filterUnits="userSpaceOnUse" color-interpolation-filters="sRGB">
<feFlood flood-opacity="0" result="BackgroundImageFix"/>
<feBlend mode="normal" in="SourceGraphic" in2="BackgroundImageFix" result="shape"/>
<feGaussianBlur stdDeviation="25" result="effect1_foregroundBlur_132_1151"/>
</filter>
<linearGradient id="paint0_linear_132_1151" x1="24" y1="0" x2="317.443" y2="325.274" gradientUnits="userSpaceOnUse">
<stop stop-color="#DF98FA"/>
<stop offset="1" stop-color="#9055FF"/>
</linearGradient>
<clipPath id="clip0_132_1151">
<rect x="24" width="327" height="257" rx="20" fill="white"/>
</clipPath>
</defs>
</svg>
