<svg width="375" height="315" viewBox="0 0 375 315" fill="none" xmlns="http://www.w3.org/2000/svg">
<g filter="url(#filter0_f_132_1151)">
<rect x="40" y="113" width="295" height="152" rx="20" fill="#240F4F"/>
</g>
<g clip-path="url(#clip0_132_1151)">
<rect x="24" width="327" height="295" fill="url(#paint0_linear_132_1151)"/>
<g style="mix-blend-mode:soft-light" opacity="0.2">
<path opacity="0.25" d="M244.056 295C321.288 295 383.896 280.435 383.896 262.467C383.896 244.5 321.288 229.934 244.056 229.934C166.824 229.934 104.215 244.5 104.215 262.467C104.215 280.435 166.824 295 244.056 295Z" fill="#042030"/>
<path d="M353.574 105.465L244.056 142.883L134.426 105.465L82 181.634L244.056 237.04L406 181.634L353.574 105.465Z" fill="#4E2999"/>
<path opacity="0.45" d="M101.105 178.525L235.503 229.934L189.297 184.188C189.297 184.188 113.434 165.867 101.105 178.525Z" fill="#240F4F"/>
<path opacity="0.45" d="M387.007 178.525L252.608 229.934L298.815 184.188C298.703 184.188 374.566 165.867 387.007 178.525Z" fill="#240F4F"/>
<path d="M244.056 237.04L82 181.634V188.852L244.056 244.257L406 188.852V181.634L244.056 237.04Z" fill="#994EF8"/>
<path d="M157.752 270.35L176.523 221.162L236.947 241.815L157.752 270.35Z" fill="#3B1E77"/>
<path opacity="0.45" d="M162.972 256.138L236.947 241.815L176.523 221.162L162.972 256.138Z" fill="#3B1E77"/>
<path d="M244.056 239.261L157.752 270.35L164.194 277.124L244.056 248.699L323.806 277.124L330.359 270.35L244.056 239.261Z" fill="#994EF8"/>
<path d="M330.359 270.35L311.477 221.162L251.053 241.815L330.359 270.35Z" fill="#3B1E77"/>
<path opacity="0.45" d="M325.028 256.138L251.053 241.815L311.477 221.162L325.028 256.138Z" fill="#3B1E77"/>
<path d="M244.055 248.699C247.307 248.699 249.942 246.064 249.942 242.814C249.942 239.564 247.307 236.929 244.055 236.929C240.804 236.929 238.169 239.564 238.169 242.814C238.169 246.064 240.804 248.699 244.055 248.699Z" fill="white" fill-opacity="0.5"/>
<path d="M348.909 105.465L244.056 157.651L139.203 105.465C134.427 111.794 95.9952 175.861 95.9952 175.861C96.4395 175.861 96.7728 175.972 97.217 175.972C193.628 185.632 220.397 215.944 229.283 223.272C238.169 230.711 244.167 229.934 244.167 229.934C244.167 229.934 250.165 230.711 259.05 223.272C267.936 215.944 294.705 185.632 391.116 175.972C391.561 175.972 391.894 175.861 392.338 175.861C392.116 175.861 353.574 111.905 348.909 105.465Z" fill="#F5B304"/>
<path d="M392.116 175.861C391.672 175.861 391.338 175.972 390.894 175.972C294.483 185.632 267.714 215.944 258.828 223.272C249.942 230.711 243.944 229.934 243.944 229.934C243.944 229.934 237.947 230.711 229.061 223.272C220.175 215.944 193.406 185.632 96.9949 175.972C96.5506 175.972 96.2173 175.861 95.7731 175.861C94.9955 177.082 95.7731 177.97 95.7731 177.97C193.184 187.408 219.064 217.831 227.95 225.271C236.836 232.599 243.833 232.044 243.833 232.044C243.833 232.044 250.831 232.599 259.717 225.271C268.603 217.942 294.483 187.519 391.894 177.97C392.116 177.97 392.893 177.082 392.116 175.861Z" fill="#994EF8"/>
<path d="M344.91 99.3581C291.262 86.4782 243.944 130.559 243.944 130.559C243.944 130.559 196.627 86.4782 142.979 99.3581C142.979 99.3581 127.762 122.675 106.769 162.314C106.769 162.314 212.4 174.195 243.944 218.498C275.489 174.195 381.12 162.314 381.12 162.314C360.127 122.675 344.91 99.3581 344.91 99.3581Z" fill="#F5EFFB"/>
<path d="M381.12 162.314C381.12 162.314 275.489 174.195 243.944 218.498C212.511 174.195 106.88 162.314 106.88 162.314C106.88 162.314 106.88 165.867 100.993 172.863C100.993 172.863 196.85 179.747 231.726 219.497C239.946 228.824 243.944 227.713 243.944 227.713C243.944 227.713 248.054 228.824 256.163 219.497C290.928 179.747 386.896 172.863 386.896 172.863C381.12 165.756 381.12 162.314 381.12 162.314Z" fill="#DFCBF4"/>
<path d="M338.912 104.022C338.912 104.022 298.814 93.8064 243.944 136.332C189.185 93.9174 148.977 104.022 148.977 104.022L121.875 156.652C204.291 162.314 243.944 203.952 243.944 203.952C243.944 203.952 283.597 162.314 366.014 156.652L338.912 104.022ZM244.056 198.956C244.056 198.956 206.957 160.982 128.317 153.543L151.087 106.242C151.087 106.242 190.518 98.5809 244.056 138.775C297.593 98.5809 337.024 106.242 337.024 106.242L359.794 153.543C281.154 160.982 244.056 198.956 244.056 198.956Z" fill="#863ED5"/>
<path opacity="0.2" d="M254.163 175.965C268.973 165.046 315.253 140.885 346.354 144.216" stroke="#863ED5" stroke-width="3" stroke-linecap="round"/>
<path opacity="0.2" d="M254.163 145.326C267.307 135.038 301.48 114.882 333.025 116.555" stroke="#863ED5" stroke-width="3" stroke-linecap="round"/>
<path opacity="0.2" d="M254.163 160.871C268.418 149.792 305.479 128.084 339.689 129.887" stroke="#863ED5" stroke-width="3" stroke-linecap="round"/>
<path opacity="0.2" d="M235.281 175.965C220.471 165.046 174.191 140.885 143.09 144.216" stroke="#863ED5" stroke-width="3" stroke-linecap="round"/>
<path opacity="0.2" d="M235.281 145.326C222.137 135.038 187.964 114.882 156.419 116.555" stroke="#863ED5" stroke-width="3" stroke-linecap="round"/>
<path opacity="0.2" d="M235.281 160.871C221.026 149.792 183.965 128.084 149.755 129.887" stroke="#863ED5" stroke-width="3" stroke-linecap="round"/>
<path d="M244.056 130.559C244.056 130.559 245.166 126.672 247.277 127.783C247.277 127.783 245.944 190.739 248.165 215.278C248.721 221.384 254.052 229.712 256.162 232.821H253.386L252.608 235.375C252.608 235.375 244.389 221.496 244.056 216.055C242.389 191.627 243.278 136.443 244.056 130.559Z" fill="#54DAF5"/>
</g>
</g>
<path d="M139.729 53.308H132.163L130.863 57H127.769L134.243 38.904H137.675L144.149 57H141.029L139.729 53.308ZM138.897 50.89L135.959 42.492L132.995 50.89H138.897ZM149.928 37.76V57H146.964V37.76H149.928ZM164.817 46.34V48.836H154.131V46.34H164.817ZM179.662 38.93V41.348H171.992V46.678H177.972V49.096H171.992V57H169.028V38.93H179.662ZM181.421 49.772C181.421 48.3333 181.716 47.0593 182.305 45.95C182.912 44.8407 183.726 43.9827 184.749 43.376C185.789 42.752 186.933 42.44 188.181 42.44C189.308 42.44 190.287 42.6653 191.119 43.116C191.968 43.5493 192.644 44.0953 193.147 44.754V42.674H196.137V57H193.147V54.868C192.644 55.544 191.96 56.1073 191.093 56.558C190.226 57.0087 189.238 57.234 188.129 57.234C186.898 57.234 185.772 56.922 184.749 56.298C183.726 55.6567 182.912 54.7727 182.305 53.646C181.716 52.502 181.421 51.2107 181.421 49.772ZM193.147 49.824C193.147 48.836 192.939 47.978 192.523 47.25C192.124 46.522 191.596 45.9673 190.937 45.586C190.278 45.2047 189.568 45.014 188.805 45.014C188.042 45.014 187.332 45.2047 186.673 45.586C186.014 45.95 185.477 46.496 185.061 47.224C184.662 47.9347 184.463 48.784 184.463 49.772C184.463 50.76 184.662 51.6267 185.061 52.372C185.477 53.1173 186.014 53.6893 186.673 54.088C187.349 54.4693 188.06 54.66 188.805 54.66C189.568 54.66 190.278 54.4693 190.937 54.088C191.596 53.7067 192.124 53.152 192.523 52.424C192.939 51.6787 193.147 50.812 193.147 49.824ZM203.488 45.092V53.022C203.488 53.5593 203.609 53.9493 203.852 54.192C204.112 54.4173 204.545 54.53 205.152 54.53H206.972V57H204.632C203.297 57 202.275 56.688 201.564 56.064C200.853 55.44 200.498 54.426 200.498 53.022V45.092H198.808V42.674H200.498V39.112H203.488V42.674H206.972V45.092H203.488ZM211.212 40.776C210.675 40.776 210.224 40.594 209.86 40.23C209.496 39.866 209.314 39.4153 209.314 38.878C209.314 38.3407 209.496 37.89 209.86 37.526C210.224 37.162 210.675 36.98 211.212 36.98C211.732 36.98 212.174 37.162 212.538 37.526C212.902 37.89 213.084 38.3407 213.084 38.878C213.084 39.4153 212.902 39.866 212.538 40.23C212.174 40.594 211.732 40.776 211.212 40.776ZM212.668 42.674V57H209.704V42.674H212.668ZM223.969 42.44C225.061 42.44 226.032 42.674 226.881 43.142C227.748 43.61 228.424 44.3033 228.909 45.222C229.412 46.1407 229.663 47.25 229.663 48.55V57H226.725V48.992C226.725 47.7093 226.405 46.73 225.763 46.054C225.122 45.3607 224.247 45.014 223.137 45.014C222.028 45.014 221.144 45.3607 220.485 46.054C219.844 46.73 219.523 47.7093 219.523 48.992V57H216.559V37.76H219.523V44.338C220.026 43.7313 220.659 43.2633 221.421 42.934C222.201 42.6047 223.051 42.44 223.969 42.44ZM232.456 49.772C232.456 48.3333 232.751 47.0593 233.34 45.95C233.947 44.8407 234.761 43.9827 235.784 43.376C236.824 42.752 237.968 42.44 239.216 42.44C240.343 42.44 241.322 42.6653 242.154 43.116C243.003 43.5493 243.679 44.0953 244.182 44.754V42.674H247.172V57H244.182V54.868C243.679 55.544 242.995 56.1073 242.128 56.558C241.261 57.0087 240.273 57.234 239.164 57.234C237.933 57.234 236.807 56.922 235.784 56.298C234.761 55.6567 233.947 54.7727 233.34 53.646C232.751 52.502 232.456 51.2107 232.456 49.772ZM244.182 49.824C244.182 48.836 243.974 47.978 243.558 47.25C243.159 46.522 242.631 45.9673 241.972 45.586C241.313 45.2047 240.603 45.014 239.84 45.014C239.077 45.014 238.367 45.2047 237.708 45.586C237.049 45.95 236.512 46.496 236.096 47.224C235.697 47.9347 235.498 48.784 235.498 49.772C235.498 50.76 235.697 51.6267 236.096 52.372C236.512 53.1173 237.049 53.6893 237.708 54.088C238.384 54.4693 239.095 54.66 239.84 54.66C240.603 54.66 241.313 54.4693 241.972 54.088C242.631 53.7067 243.159 53.152 243.558 52.424C243.974 51.6787 244.182 50.812 244.182 49.824Z" fill="white"/>
<path d="M136.061 89.112C135.026 89.112 134.072 88.872 133.197 88.392C132.333 87.9013 131.645 87.224 131.133 86.36C130.632 85.4853 130.381 84.504 130.381 83.416C130.381 82.328 130.632 81.352 131.133 80.488C131.645 79.624 132.333 78.952 133.197 78.472C134.072 77.9813 135.026 77.736 136.061 77.736C137.106 77.736 138.061 77.9813 138.925 78.472C139.8 78.952 140.488 79.624 140.989 80.488C141.49 81.352 141.741 82.328 141.741 83.416C141.741 84.504 141.49 85.4853 140.989 86.36C140.488 87.224 139.8 87.9013 138.925 88.392C138.061 88.872 137.106 89.112 136.061 89.112ZM136.061 87.528C136.797 87.528 137.453 87.3627 138.029 87.032C138.605 86.6907 139.053 86.2107 139.373 85.592C139.704 84.9627 139.869 84.2373 139.869 83.416C139.869 82.5947 139.704 81.8747 139.373 81.256C139.053 80.6373 138.605 80.1627 138.029 79.832C137.453 79.5013 136.797 79.336 136.061 79.336C135.325 79.336 134.669 79.5013 134.093 79.832C133.517 80.1627 133.064 80.6373 132.733 81.256C132.413 81.8747 132.253 82.5947 132.253 83.416C132.253 84.2373 132.413 84.9627 132.733 85.592C133.064 86.2107 133.517 86.6907 134.093 87.032C134.669 87.3627 135.325 87.528 136.061 87.528ZM142.928 84.584C142.928 83.6773 143.109 82.8827 143.472 82.2C143.845 81.5067 144.357 80.9733 145.008 80.6C145.659 80.2267 146.405 80.04 147.248 80.04C148.315 80.04 149.195 80.296 149.888 80.808C150.592 81.3093 151.067 82.0293 151.312 82.968H149.344C149.184 82.5307 148.928 82.1893 148.576 81.944C148.224 81.6987 147.781 81.576 147.248 81.576C146.501 81.576 145.904 81.8427 145.456 82.376C145.019 82.8987 144.8 83.6347 144.8 84.584C144.8 85.5333 145.019 86.2747 145.456 86.808C145.904 87.3413 146.501 87.608 147.248 87.608C148.304 87.608 149.003 87.144 149.344 86.216H151.312C151.056 87.112 150.576 87.8267 149.872 88.36C149.168 88.8827 148.293 89.144 147.248 89.144C146.405 89.144 145.659 88.9573 145.008 88.584C144.357 88.2 143.845 87.6667 143.472 86.984C143.109 86.2907 142.928 85.4907 142.928 84.584ZM157.69 80.04C158.362 80.04 158.959 80.184 159.482 80.472C160.015 80.76 160.431 81.1867 160.73 81.752C161.039 82.3173 161.194 83 161.194 83.8V89H159.386V84.072C159.386 83.2827 159.188 82.68 158.794 82.264C158.399 81.8373 157.86 81.624 157.178 81.624C156.495 81.624 155.951 81.8373 155.546 82.264C155.151 82.68 154.954 83.2827 154.954 84.072V89H153.13V77.16H154.954V81.208C155.263 80.8347 155.652 80.5467 156.122 80.344C156.602 80.1413 157.124 80.04 157.69 80.04ZM171.504 80.184V89H169.68V87.96C169.392 88.3227 169.014 88.6107 168.544 88.824C168.086 89.0267 167.595 89.128 167.072 89.128C166.379 89.128 165.755 88.984 165.2 88.696C164.656 88.408 164.224 87.9813 163.904 87.416C163.595 86.8507 163.44 86.168 163.44 85.368V80.184H165.248V85.096C165.248 85.8853 165.446 86.4933 165.84 86.92C166.235 87.336 166.774 87.544 167.456 87.544C168.139 87.544 168.678 87.336 169.072 86.92C169.478 86.4933 169.68 85.8853 169.68 85.096V80.184H171.504ZM177.319 87.368L179.815 80.184H181.751L178.391 89H176.215L172.871 80.184H174.823L177.319 87.368ZM182.522 84.584C182.522 83.6773 182.703 82.8827 183.066 82.2C183.439 81.5067 183.951 80.9733 184.602 80.6C185.252 80.2267 185.999 80.04 186.842 80.04C187.908 80.04 188.788 80.296 189.482 80.808C190.186 81.3093 190.66 82.0293 190.906 82.968H188.938C188.778 82.5307 188.522 82.1893 188.17 81.944C187.818 81.6987 187.375 81.576 186.842 81.576C186.095 81.576 185.498 81.8427 185.05 82.376C184.612 82.8987 184.394 83.6347 184.394 84.584C184.394 85.5333 184.612 86.2747 185.05 86.808C185.498 87.3413 186.095 87.608 186.842 87.608C187.898 87.608 188.596 87.144 188.938 86.216H190.906C190.65 87.112 190.17 87.8267 189.466 88.36C188.762 88.8827 187.887 89.144 186.842 89.144C185.999 89.144 185.252 88.9573 184.602 88.584C183.951 88.2 183.439 87.6667 183.066 86.984C182.703 86.2907 182.522 85.4907 182.522 84.584ZM197.283 80.04C197.955 80.04 198.553 80.184 199.075 80.472C199.609 80.76 200.025 81.1867 200.323 81.752C200.633 82.3173 200.787 83 200.787 83.8V89H198.979V84.072C198.979 83.2827 198.782 82.68 198.387 82.264C197.993 81.8373 197.454 81.624 196.771 81.624C196.089 81.624 195.545 81.8373 195.139 82.264C194.745 82.68 194.547 83.2827 194.547 84.072V89H192.723V77.16H194.547V81.208C194.857 80.8347 195.246 80.5467 195.715 80.344C196.195 80.1413 196.718 80.04 197.283 80.04ZM204.042 79.016C203.711 79.016 203.434 78.904 203.21 78.68C202.986 78.456 202.874 78.1787 202.874 77.848C202.874 77.5173 202.986 77.24 203.21 77.016C203.434 76.792 203.711 76.68 204.042 76.68C204.362 76.68 204.634 76.792 204.858 77.016C205.082 77.24 205.194 77.5173 205.194 77.848C205.194 78.1787 205.082 78.456 204.858 78.68C204.634 78.904 204.362 79.016 204.042 79.016ZM204.938 80.184V89H203.114V80.184H204.938ZM214.689 89.144C213.996 89.144 213.372 89.0213 212.817 88.776C212.273 88.52 211.841 88.1787 211.521 87.752C211.201 87.3147 211.03 86.8293 211.009 86.296H212.897C212.929 86.6693 213.105 86.984 213.425 87.24C213.756 87.4853 214.166 87.608 214.657 87.608C215.169 87.608 215.564 87.512 215.841 87.32C216.129 87.1173 216.273 86.8613 216.273 86.552C216.273 86.2213 216.113 85.976 215.793 85.816C215.484 85.656 214.988 85.48 214.305 85.288C213.644 85.1067 213.105 84.9307 212.689 84.76C212.273 84.5893 211.91 84.328 211.601 83.976C211.302 83.624 211.153 83.16 211.153 82.584C211.153 82.1147 211.292 81.688 211.569 81.304C211.846 80.9093 212.241 80.6 212.753 80.376C213.276 80.152 213.873 80.04 214.545 80.04C215.548 80.04 216.353 80.296 216.961 80.808C217.58 81.3093 217.91 81.9973 217.953 82.872H216.129C216.097 82.4773 215.937 82.1627 215.649 81.928C215.361 81.6933 214.972 81.576 214.481 81.576C214.001 81.576 213.633 81.6667 213.377 81.848C213.121 82.0293 212.993 82.2693 212.993 82.568C212.993 82.8027 213.078 83 213.249 83.16C213.42 83.32 213.628 83.448 213.873 83.544C214.118 83.6293 214.481 83.7413 214.961 83.88C215.601 84.0507 216.124 84.2267 216.529 84.408C216.945 84.5787 217.302 84.8347 217.601 85.176C217.9 85.5173 218.054 85.9707 218.065 86.536C218.065 87.0373 217.926 87.4853 217.649 87.88C217.372 88.2747 216.977 88.584 216.465 88.808C215.964 89.032 215.372 89.144 214.689 89.144ZM228.02 80.184V89H226.196V87.96C225.908 88.3227 225.529 88.6107 225.06 88.824C224.601 89.0267 224.111 89.128 223.588 89.128C222.895 89.128 222.271 88.984 221.716 88.696C221.172 88.408 220.74 87.9813 220.42 87.416C220.111 86.8507 219.956 86.168 219.956 85.368V80.184H221.764V85.096C221.764 85.8853 221.961 86.4933 222.356 86.92C222.751 87.336 223.289 87.544 223.972 87.544C224.655 87.544 225.193 87.336 225.588 86.92C225.993 86.4933 226.196 85.8853 226.196 85.096V80.184H228.02ZM232.251 81.464C232.517 81.016 232.869 80.6693 233.307 80.424C233.755 80.168 234.283 80.04 234.891 80.04V81.928H234.427C233.712 81.928 233.168 82.1093 232.795 82.472C232.432 82.8347 232.251 83.464 232.251 84.36V89H230.427V80.184H232.251V81.464ZM235.959 84.552C235.959 83.6667 236.141 82.8827 236.503 82.2C236.877 81.5173 237.378 80.9893 238.007 80.616C238.647 80.232 239.351 80.04 240.119 80.04C240.813 80.04 241.415 80.1787 241.927 80.456C242.45 80.7227 242.866 81.0587 243.175 81.464V80.184H245.015V89H243.175V87.688C242.866 88.104 242.445 88.4507 241.911 88.728C241.378 89.0053 240.77 89.144 240.087 89.144C239.33 89.144 238.637 88.952 238.007 88.568C237.378 88.1733 236.877 87.6293 236.503 86.936C236.141 86.232 235.959 85.4373 235.959 84.552ZM243.175 84.584C243.175 83.976 243.047 83.448 242.791 83C242.546 82.552 242.221 82.2107 241.815 81.976C241.41 81.7413 240.973 81.624 240.503 81.624C240.034 81.624 239.597 81.7413 239.191 81.976C238.786 82.2 238.455 82.536 238.199 82.984C237.954 83.4213 237.831 83.944 237.831 84.552C237.831 85.16 237.954 85.6933 238.199 86.152C238.455 86.6107 238.786 86.9627 239.191 87.208C239.607 87.4427 240.045 87.56 240.503 87.56C240.973 87.56 241.41 87.4427 241.815 87.208C242.221 86.9733 242.546 86.632 242.791 86.184C243.047 85.7253 243.175 85.192 243.175 84.584Z" fill="white"/>
<line x1="88" y1="110.5" x2="288" y2="110.5" stroke="white" stroke-opacity="0.35"/>
<path d="M142.798 132.27V142H141.202V135.336L138.234 142H137.128L134.146 135.336V142H132.55V132.27H134.272L137.688 139.9L141.09 132.27H142.798ZM150.762 140.012H146.688L145.988 142H144.322L147.808 132.256H149.656L153.142 142H151.462L150.762 140.012ZM150.314 138.71L148.732 134.188L147.136 138.71H150.314ZM160.019 142L156.253 137.646V142H154.657V132.27H156.253V136.708L160.033 132.27H162.035L157.807 137.142L162.105 142H160.019ZM168.879 142L165.113 137.646V142H163.517V132.27H165.113V136.708L168.893 132.27H170.895L166.667 137.142L170.965 142H168.879ZM178.242 140.012H174.168L173.468 142H171.802L175.288 132.256H177.136L180.622 142H178.942L178.242 140.012ZM177.794 138.71L176.212 134.188L174.616 138.71H177.794Z" fill="white"/>
<circle cx="188.5" cy="137.5" r="2" fill="white" fill-opacity="0.35"/>
<path d="M202.808 133.026L198.916 142H197.306L201.24 133.194H196.06V131.836H202.808V133.026ZM212.459 142.098C211.553 142.098 210.718 141.888 209.953 141.468C209.197 141.039 208.595 140.446 208.147 139.69C207.708 138.925 207.489 138.066 207.489 137.114C207.489 136.162 207.708 135.308 208.147 134.552C208.595 133.796 209.197 133.208 209.953 132.788C210.718 132.359 211.553 132.144 212.459 132.144C213.373 132.144 214.209 132.359 214.965 132.788C215.73 133.208 216.332 133.796 216.771 134.552C217.209 135.308 217.429 136.162 217.429 137.114C217.429 138.066 217.209 138.925 216.771 139.69C216.332 140.446 215.73 141.039 214.965 141.468C214.209 141.888 213.373 142.098 212.459 142.098ZM212.459 140.712C213.103 140.712 213.677 140.567 214.181 140.278C214.685 139.979 215.077 139.559 215.357 139.018C215.646 138.467 215.791 137.833 215.791 137.114C215.791 136.395 215.646 135.765 215.357 135.224C215.077 134.683 214.685 134.267 214.181 133.978C213.677 133.689 213.103 133.544 212.459 133.544C211.815 133.544 211.241 133.689 210.737 133.978C210.233 134.267 209.836 134.683 209.547 135.224C209.267 135.765 209.127 136.395 209.127 137.114C209.127 137.833 209.267 138.467 209.547 139.018C209.836 139.559 210.233 139.979 210.737 140.278C211.241 140.567 211.815 140.712 212.459 140.712ZM226.209 132.27L222.989 138.472V142H221.393V138.472L218.159 132.27H219.937L222.191 137.044L224.445 132.27H226.209ZM233.342 140.012H229.268L228.568 142H226.902L230.388 132.256H232.236L235.722 142H234.042L233.342 140.012ZM232.894 138.71L231.312 134.188L229.716 138.71H232.894ZM243.524 132.27V133.572H240.934V142H239.338V133.572H236.734V132.27H243.524Z" fill="white"/>
<path d="M85.8022 194.654C85.4012 197.245 83.7996 199.089 81 200.187V200.037C82.5007 199.14 83.4011 198.191 83.7013 197.196C82.2989 197.295 81.4502 197.545 81.1501 197.944C81.3493 196.748 81.6986 195.899 82.2006 195.402C82.3998 195.201 83.6003 194.953 85.8022 194.654ZM158.436 202.579C158.436 204.075 158.136 205.369 157.536 206.467C156.935 207.761 156.035 208.411 154.835 208.411C154.033 208.411 153.432 208.359 153.034 208.262C153.034 208.759 153.034 209.257 153.034 209.757C153.034 211.75 152.783 212.995 152.283 213.495C148.281 218.079 144.529 220.374 141.028 220.374C139.527 220.374 138.376 219.675 137.576 218.28C136.875 217.182 136.526 215.936 136.526 214.542C136.526 212.247 137.074 209.406 138.177 206.018C136.976 206.915 134.973 208.759 132.174 211.551C129.072 214.542 126.821 216.636 125.421 217.831C122.818 219.825 120.717 220.822 119.118 220.822C117.917 220.822 116.867 220.247 115.966 219.102C115.066 217.956 114.616 216.635 114.616 215.139C114.616 213.345 115.216 211.05 116.417 208.261C116.215 208.359 115.966 208.41 115.666 208.41C114.965 208.41 114.365 208.359 113.865 208.261C113.865 208.759 113.865 209.256 113.865 209.757C113.865 211.75 113.664 212.945 113.265 213.345C108.561 217.93 104.76 220.224 101.86 220.224C100.359 220.224 99.2076 219.625 98.4081 218.429C97.6064 217.233 97.2076 215.787 97.2076 214.092C97.2076 213.494 97.4559 212.172 97.9579 210.13C98.4573 208.085 98.7083 206.317 98.7083 204.821C98.7083 203.625 98.5582 202.477 98.2581 201.382C97.0575 201.083 95.8569 200.235 94.6564 198.84C93.4558 197.443 92.6541 196.746 92.2553 196.746C91.7536 196.746 90.9538 197.593 89.8541 199.289C89.052 200.583 88.3534 201.88 87.7532 203.176C90.0534 204.372 91.2048 206.963 91.2048 210.951H90.4544C89.3525 210.453 88.3017 209.907 87.3029 209.308C86.302 208.61 85.8022 207.563 85.8022 206.169C83.4998 207.265 82.3506 208.76 82.3506 210.655C82.3506 210.853 83.3261 213.145 85.277 217.533C87.2279 221.918 88.2034 225.407 88.2034 228H87.9032C87.7014 226.404 86.5526 223.462 84.4516 219.177C82.5498 215.189 81.6003 212.299 81.6003 210.505C81.6003 207.911 83.1501 205.519 86.2525 203.327C86.6513 202.03 87.6522 200.285 89.2539 198.093C91.0547 195.5 92.504 194.206 93.6059 194.206C94.0047 194.206 94.9565 195.103 96.4572 196.897C96.2554 196.397 96.1571 195.899 96.1571 195.402C96.1571 194.105 96.6073 193.009 97.5077 192.112C98.4081 191.215 99.5078 190.766 100.809 190.766C101.808 190.766 103.759 191.239 106.662 192.187C109.562 193.133 112.114 193.607 114.316 193.607L112.515 196.598C111.113 196.797 108.862 197.694 105.762 199.29C103.06 200.684 100.809 201.383 99.0084 201.383C98.9075 201.383 98.7083 201.383 98.4081 201.383C98.9079 202.778 99.1585 204.273 99.1585 205.869C99.1585 207.164 98.9825 208.61 98.6332 210.206C98.2813 211.8 98.108 212.696 98.108 212.898C98.108 216.087 99.4069 217.682 102.01 217.682C103.909 217.682 106.111 216.685 108.613 214.692C110.212 213.395 111.713 212.05 113.115 210.655C113.115 209.956 112.714 208.86 111.914 207.364C111.513 206.467 111.063 205.57 110.564 204.673L111.614 202.131C112.515 203.526 113.164 204.472 113.565 204.972C114.264 205.668 115.015 206.019 115.816 206.019C116.815 206.019 117.617 205.62 118.217 204.823C118.217 203.328 118.116 201.881 117.917 200.486L115.366 184.636C115.265 183.641 115.066 182.893 114.766 182.393L115.516 180.299L118.217 185.234V186.131L116.867 184.785C116.766 184.986 116.766 185.185 116.867 185.384L119.118 200.486C119.216 200.883 119.268 201.582 119.268 202.58C119.268 205.57 118.466 207.414 116.867 208.113C115.865 210.304 115.366 212.248 115.366 213.944C115.366 214.841 115.715 215.687 116.417 216.487C117.216 217.384 118.166 217.833 119.268 217.833C121.069 217.833 123.369 216.487 126.171 213.796C128.671 211.501 131.173 209.16 133.675 206.767C135.574 205.171 137.426 203.826 139.227 202.73C138.725 202.529 137.975 201.982 136.976 201.085C135.574 199.987 134.875 198.741 134.875 197.347C134.875 195.053 136.125 193.908 138.627 193.908C143.429 193.908 148.63 194.753 154.234 196.45L152.283 199.44C150.482 200.039 147.23 201.333 142.529 203.328C143.028 204.125 143.579 206.02 144.18 209.01C141.478 209.01 140.128 208.211 140.128 206.618C140.128 206.417 140.177 206.069 140.278 205.571C140.376 205.071 140.428 204.723 140.428 204.524C140.027 204.824 139.427 205.22 138.627 205.72C137.626 208.909 137.126 211.302 137.126 212.898C137.126 216.087 138.477 217.683 141.178 217.683C144.079 217.683 147.781 215.339 152.283 210.655C152.182 209.956 151.782 208.86 151.083 207.365C150.581 206.566 150.131 205.72 149.732 204.823L150.633 202.131C151.533 203.627 152.232 204.573 152.734 204.972C153.334 205.668 154.084 206.019 154.985 206.019C155.983 206.019 156.785 205.62 157.386 204.823C157.285 203.328 157.135 201.881 156.935 200.486L154.534 184.785C154.333 183.69 154.133 182.893 153.934 182.393L154.684 180.299L157.236 185.234V186.131L156.035 184.785C155.934 185.084 155.934 185.335 156.035 185.533L158.286 200.486C158.385 200.883 158.436 201.582 158.436 202.579ZM91.3548 189.271C91.3548 190.965 90.8037 191.813 89.7041 191.813C88.7027 191.813 88.2034 191.264 88.2034 190.169C88.2034 189.47 88.3534 188.624 88.6536 187.627C89.2539 186.43 89.554 185.734 89.554 185.533C89.7532 186.332 89.8027 186.879 89.7041 187.178C90.8037 187.776 91.3548 188.474 91.3548 189.271ZM90.9046 189.869C90.5036 189.369 89.9037 189.021 89.1038 188.822C88.7027 189.22 88.5035 189.469 88.5035 189.57C88.5035 190.168 88.8528 190.467 89.554 190.467C90.0534 190.467 90.5036 190.266 90.9046 189.869ZM94.9565 214.542L93.906 216.186C93.3057 216.385 92.6541 216.535 91.9551 216.635C90.8529 217.033 90.3043 217.481 90.3043 217.981C90.8041 219.974 91.0547 221.369 91.0547 222.168C91.0547 223.963 91.0033 225.009 90.9046 225.308C90.9046 224.209 90.7028 222.766 90.3043 220.971C89.9037 219.176 89.7041 218.03 89.7041 217.532C89.7041 216.635 90.0275 216.037 90.6795 215.738C91.329 215.438 91.9551 215.188 92.5554 214.99C92.1547 214.69 91.805 214.541 91.5049 214.541L90.6045 215.289V214.541C90.9046 214.142 91.153 213.768 91.3548 213.42C91.5541 213.069 91.805 212.897 92.1052 212.897C92.7055 212.897 93.655 213.444 94.9565 214.542ZM96.1571 207.065L94.9565 209.457L92.4053 208.262L93.3057 206.168L91.0547 204.972L92.1052 202.58L94.8065 203.776L93.756 205.869L96.1571 207.065ZM108.913 195.551C108.313 195.45 106.911 195.103 104.711 194.504C102.91 193.907 101.508 193.607 100.509 193.607C98.2063 193.607 97.0575 194.453 97.0575 196.15C97.0575 196.846 97.3062 197.544 97.8079 198.243C98.2067 198.64 98.7083 198.841 99.3086 198.841C100.708 198.841 102.31 198.442 104.111 197.645C107.011 196.348 108.613 195.649 108.913 195.551ZM110.264 206.916C108.763 210.703 106.861 212.598 104.561 212.598C102.859 212.598 102.01 211.799 102.01 210.206C102.01 208.909 103.109 207.564 105.311 206.169C104.911 205.869 104.51 205.72 104.111 205.72C103.609 205.72 103.109 205.967 102.61 206.467V205.869C103.109 204.771 103.811 204.224 104.711 204.224C106.212 204.224 107.412 204.423 108.313 204.823L106.512 206.467C105.811 206.665 105.034 207.114 104.186 207.813C103.335 208.51 102.91 209.108 102.91 209.608C102.91 210.505 103.71 210.954 105.311 210.954C106.411 210.954 107.511 210.356 108.613 209.16C109.112 208.36 109.663 207.612 110.264 206.916ZM112.965 186.579C112.965 187.775 112.564 188.374 111.764 188.374C111.363 188.374 110.962 188.175 110.564 187.775C110.264 188.575 109.813 188.972 109.213 188.972C108.512 188.972 108.163 188.523 108.163 187.626C108.163 187.027 108.163 186.43 108.163 185.831C107.961 186.033 107.712 186.331 107.412 186.728V186.13C107.612 185.633 108.111 184.985 108.913 184.186C108.613 186.28 108.812 187.326 109.513 187.326C110.013 187.326 110.264 186.978 110.264 186.279C110.264 185.98 110.163 185.382 109.964 184.485L110.414 183.589C110.714 184.089 110.913 184.836 111.014 185.832C111.014 186.53 111.263 186.879 111.764 186.879C112.065 186.879 112.215 186.631 112.215 186.131L111.764 184.187L112.365 183.14C112.763 184.437 112.965 185.584 112.965 186.579ZM121.519 212.299C121.418 213.693 120.919 214.393 120.018 214.393C119.118 214.393 118.668 213.944 118.668 213.047C118.668 211.75 119.367 210.255 120.769 208.561C120.067 210.154 119.718 211.301 119.718 212C119.718 212.696 119.966 213.047 120.468 213.047C120.968 213.047 121.268 212.797 121.369 212.299H121.519ZM124.52 203.626C124.52 205.719 124.269 207.313 123.77 208.411H123.47C123.568 206.217 123.47 203.925 123.17 201.533L120.468 184.636C120.368 183.64 120.168 182.893 119.868 182.393L120.619 180.299L123.17 185.234V186.131L121.969 184.785C121.868 184.986 121.868 185.184 121.969 185.383L124.37 201.383C124.469 201.881 124.52 202.628 124.52 203.626ZM131.273 184.935C131.273 185.334 131.123 185.783 130.823 186.28C130.523 185.981 130.272 185.832 130.073 185.832C129.571 185.832 129.173 186.531 128.872 187.926C128.671 188.823 128.52 189.818 128.422 190.916C128.122 190.117 127.62 189.07 126.921 187.776C126.821 188.277 126.52 188.524 126.021 188.524C125.219 188.524 124.82 188.076 124.82 187.178C124.82 186.082 125.17 185.533 125.871 185.533C126.771 185.533 127.571 186.58 128.272 188.673C128.872 185.084 129.623 183.29 130.523 183.29C131.022 183.29 131.273 183.839 131.273 184.935ZM131.424 193.308C131.022 196 129.473 197.843 126.771 198.841L126.621 198.692C128.122 197.795 129.022 196.846 129.323 195.85C127.921 195.949 127.072 196.199 126.771 196.598C126.971 195.402 127.32 194.554 127.822 194.056C128.021 193.855 129.222 193.607 131.424 193.308ZM131.273 202.579L130.073 204.971L127.522 203.776L128.722 201.383L131.273 202.579ZM133.975 218.579C133.975 219.974 133.473 220.673 132.474 220.673C131.574 220.673 131.123 220.225 131.123 219.327C131.123 218.03 131.822 216.535 133.224 214.841H133.374C132.572 216.435 132.174 217.582 132.174 218.28C132.174 218.976 132.423 219.327 132.924 219.327C133.424 219.327 133.724 219.077 133.825 218.579H133.975ZM136.676 186.579C136.676 187.775 136.425 189.121 135.926 190.617C136.024 189.818 136.076 188.923 136.076 187.925C136.076 186.131 135.525 184.736 134.425 183.738L134.575 181.944C135.274 182.343 135.799 183.042 136.151 184.037C136.5 185.035 136.676 185.883 136.676 186.579ZM149.132 198.393C146.33 197.196 143.077 196.598 139.377 196.598C137.576 196.598 136.376 196.797 135.776 197.196C135.776 197.395 136.425 197.967 137.727 198.916C139.025 199.862 140.128 200.785 141.028 201.682C143.129 200.684 145.83 199.589 149.132 198.393ZM152.433 181.495C152.433 182.094 152.257 182.793 151.908 183.589C151.556 184.388 151.132 184.986 150.633 185.384C151.233 184.187 151.533 183.342 151.533 182.841C146.431 184.437 141.778 187.129 137.576 190.916C137.675 190.416 137.776 189.919 137.877 189.421C139.576 187.727 141.853 186.131 144.705 184.636C147.556 183.14 150.131 182.093 152.433 181.495ZM148.682 207.813C148.881 208.61 148.682 209.058 148.081 209.159C147.781 209.258 147.331 209.058 146.731 208.561C146.33 209.257 145.68 210.205 144.78 211.402C143.678 212.696 142.229 213.496 140.428 213.794L139.077 214.093C140.477 213.395 142.027 212.397 143.729 211.103C145.129 210.004 146.079 208.909 146.581 207.813C146.979 207.014 147.331 206.566 147.631 206.467C148.13 206.367 148.48 206.815 148.682 207.813ZM149.882 190.019C149.882 191.215 149.481 191.813 148.682 191.813C148.281 191.813 147.88 191.563 147.481 191.066C147.181 191.862 146.731 192.262 146.13 192.262C145.53 192.262 145.178 191.863 145.08 191.066C145.08 190.367 145.08 189.72 145.08 189.122C144.878 189.421 144.679 189.72 144.48 190.019V189.57C144.578 189.07 145.028 188.425 145.83 187.626C145.53 189.619 145.729 190.617 146.431 190.617C146.93 190.617 147.181 190.318 147.181 189.72C147.181 189.421 147.08 188.774 146.881 187.776L147.481 187.028C147.68 187.428 147.83 188.126 147.931 189.122C147.931 189.818 148.18 190.169 148.682 190.169C148.982 190.169 149.132 189.967 149.132 189.57C149.132 189.47 148.982 188.823 148.682 187.627L149.282 186.43C149.681 187.727 149.882 188.923 149.882 190.019ZM148.381 208.262C147.98 207.663 147.53 207.514 147.031 207.813C147.631 208.21 148.081 208.36 148.381 208.262ZM162.038 214.393C162.038 215.388 161.738 215.888 161.137 215.888C160.736 215.888 160.286 215.739 159.787 215.439C158.084 218.529 154.933 220.024 150.332 219.925H150.182V219.776C154.684 218.677 157.735 217.133 159.337 215.141C158.835 214.939 158.586 214.64 158.586 214.244C158.586 213.944 158.736 213.594 159.036 213.196C159.337 212.797 159.585 212.598 159.787 212.598L159.637 212L159.787 211.85C159.986 211.85 160.335 212.049 160.837 212.449V212.598C161.637 213.495 162.038 214.093 162.038 214.393ZM163.689 203.626C163.689 205.719 163.438 207.313 162.938 208.411H162.638C162.736 206.217 162.586 203.925 162.188 201.533L159.637 184.636C159.435 183.64 159.236 182.893 159.036 182.393L159.787 180.299L162.338 185.234V186.131L161.137 184.785C161.037 184.986 160.987 185.184 160.987 185.383L163.539 201.383C163.637 201.881 163.689 202.628 163.689 203.626ZM160.387 213.645C160.387 213.444 160.286 213.345 160.087 213.345C159.686 213.345 159.386 213.495 159.187 213.794C159.386 214.093 159.686 214.292 160.087 214.393C160.087 214.292 160.136 214.168 160.237 214.019C160.335 213.869 160.387 213.743 160.387 213.645ZM295 208.112C295 209.507 294.674 210.655 294.024 211.551C293.372 212.448 292.648 212.897 291.848 212.897C290.347 212.897 289.297 211.948 288.697 210.056C288.296 211.948 287.445 212.897 286.145 212.897C284.945 212.897 284.143 212.098 283.745 210.505C282.943 212.398 281.543 213.346 279.543 213.346C278.842 213.346 278.268 213.071 277.817 212.524C277.367 211.975 277.141 211.351 277.141 210.655C277.141 210.356 277.141 210.106 277.141 209.907C263.035 214.292 248.628 216.487 233.921 216.487C226.816 216.487 219.864 215.889 213.061 214.692C206.557 213.695 201.705 212.349 198.505 210.655C198.505 212.049 198.452 213.444 198.354 214.841H198.055C196.854 214.043 196.104 213.096 195.804 212C195.703 211.201 195.628 210.453 195.579 209.757C195.526 209.059 194.902 208.71 193.703 208.71C192.6 208.71 190.725 210.304 188.075 213.496C185.423 216.684 183.397 218.281 181.997 218.281C181.195 218.281 180.496 217.907 179.896 217.159C179.296 216.412 178.996 215.388 178.996 214.094C178.996 213.395 179.146 212.547 179.446 211.552C178.944 211.75 178.445 211.851 177.945 211.851C175.943 211.851 174.644 210.505 174.043 207.813C173.842 211.103 172.341 212.748 169.541 212.748C168.341 212.748 167.44 212.098 166.84 210.804C166.439 209.806 166.289 208.659 166.39 207.365C166.39 207.164 166.488 206.468 166.69 205.271C166.789 204.274 166.84 203.376 166.84 202.58C166.139 203.575 165.64 204.872 165.339 206.467C165.138 207.563 164.939 208.659 164.739 209.757C164.338 211.552 163.689 212.448 162.788 212.448C162.087 212.448 161.487 211.874 160.987 210.729C160.485 209.582 160.237 208.359 160.237 207.065C160.237 205.668 160.335 204.124 160.537 202.43L160.837 202.579C160.736 203.376 160.687 204.173 160.687 204.971C160.687 208.359 161.386 210.056 162.788 210.056C163.288 210.056 163.738 209.308 164.139 207.813C164.837 205.32 165.238 203.873 165.339 203.476C166.038 201.78 166.939 200.635 168.041 200.037V201.981C167.64 204.572 167.44 206.168 167.44 206.766C167.44 208.957 168.24 210.056 169.842 210.056C170.841 210.056 171.717 209.656 172.468 208.859C173.218 208.061 173.593 207.114 173.593 206.018L172.543 200.187L173.293 198.093C173.792 199.089 174.093 199.888 174.194 200.486C174.494 202.179 174.742 203.925 174.944 205.719C175.544 208.21 176.644 209.458 178.245 209.458C179.244 209.458 179.945 209.059 180.346 208.262C179.845 207.164 179.345 206.068 178.846 204.972C178.145 203.178 177.743 201.781 177.645 200.785L177.195 199.738L177.795 197.645L179.896 200.935V201.682C179.596 201.481 179.296 201.234 178.996 200.935C178.895 201.133 178.895 201.234 178.996 201.234C180.396 204.423 181.097 206.617 181.097 207.813C181.097 209.608 180.696 210.804 179.896 211.403C179.596 212.398 179.446 213.145 179.446 213.646C179.446 215.04 180.145 215.739 181.547 215.739C182.846 215.739 184.797 214.118 187.4 210.88C190 207.639 192.052 206.02 193.553 206.02C194.052 206.02 194.753 206.319 195.654 206.917L196.404 205.122C197.804 207.115 201.957 208.958 208.86 210.654C216.762 212.448 225.818 213.345 236.022 213.345C242.925 213.345 250.527 212.747 258.833 211.551C266.036 210.453 272.539 209.107 278.342 207.514C278.141 207.813 278.042 208.16 278.042 208.56C278.042 209.159 278.241 209.705 278.642 210.204C279.041 210.702 279.491 210.952 279.994 210.952C280.992 210.952 282.043 210.452 283.144 209.457L285.095 207.514L285.245 207.664C285.245 207.862 285.245 208.061 285.245 208.262C285.245 209.656 285.745 210.356 286.746 210.356C287.245 210.356 287.797 209.907 288.396 209.01C289.095 207.813 289.597 207.115 289.897 206.916H290.047C290.047 207.114 290.047 207.313 290.047 207.514C290.047 208.311 290.321 209.033 290.872 209.683C291.421 210.329 291.946 210.655 292.448 210.655C293.447 210.655 293.949 210.255 293.949 209.458C293.949 208.561 293.198 206.767 291.698 204.076C290.096 201.183 289.245 199.44 289.146 198.842C289.046 198.641 288.896 198.367 288.696 198.019C288.495 197.669 288.396 197.444 288.396 197.347L288.846 195.104L291.848 198.243V198.841L290.497 198.243V198.542C291.297 199.738 292.096 200.934 292.898 202.131C294.299 204.621 295 206.617 295 208.112ZM161.588 214.841C161.386 214.64 161.086 214.292 160.687 213.794L160.387 214.542C160.687 214.741 160.987 214.841 161.288 214.841C161.386 214.841 161.487 214.841 161.588 214.841ZM179.446 180C179.446 180.5 179.244 181.147 178.846 181.944C178.445 182.743 178.044 183.39 177.645 183.888C178.245 182.692 178.546 181.794 178.546 181.196C172.341 183.191 167.088 186.131 162.788 190.019C162.788 189.519 162.887 188.972 163.088 188.374C164.788 186.781 167.389 185.084 170.892 183.29C174.194 181.596 177.045 180.5 179.446 180ZM173.143 214.991C173.143 215.488 172.941 215.986 172.543 216.486C172.341 216.186 172.093 216.037 171.792 216.037C171.291 216.037 170.892 216.684 170.592 217.981C170.491 218.976 170.341 219.974 170.142 220.972C169.94 220.273 169.44 219.227 168.641 217.832C168.54 218.43 168.289 218.729 167.891 218.729C166.99 218.729 166.54 218.229 166.54 217.234C166.54 216.236 166.939 215.738 167.741 215.738C168.54 215.738 169.34 216.785 170.142 218.878C170.641 215.289 171.391 213.495 172.393 213.495C172.892 213.495 173.143 213.993 173.143 214.991ZM173.443 192.86C173.443 194.056 172.993 194.654 172.093 194.654C171.792 194.654 171.391 194.404 170.892 193.907C170.69 194.703 170.24 195.103 169.541 195.103C168.941 195.103 168.589 194.703 168.491 193.907C168.491 193.208 168.491 192.561 168.491 191.963C168.289 192.262 168.09 192.561 167.891 192.86V192.262C168.09 191.863 168.54 191.264 169.241 190.467C169.039 192.46 169.241 193.458 169.842 193.458C170.341 193.458 170.592 193.107 170.592 192.411C170.592 192.21 170.491 191.612 170.292 190.617L170.892 189.869C171.192 190.267 171.342 190.965 171.342 191.963C171.441 192.659 171.741 193.009 172.243 193.009C172.543 193.009 172.693 192.809 172.693 192.411C172.693 192.311 172.543 191.664 172.243 190.467L172.693 189.271C173.192 190.566 173.443 191.761 173.443 192.86ZM177.195 191.215C177.195 192.411 176.944 193.757 176.445 195.252C176.543 194.453 176.595 193.557 176.595 192.561C176.595 190.766 176.044 189.369 174.944 188.374L175.094 186.43C175.694 186.93 176.194 187.678 176.595 188.673C176.993 189.668 177.195 190.516 177.195 191.215ZM185.299 203.626C185.299 205.719 185.097 207.313 184.698 208.411H184.398C184.497 206.217 184.347 203.925 183.948 201.533L181.397 184.636C181.195 183.64 180.996 182.893 180.797 182.393L181.547 180.299L184.098 185.234V186.131L182.898 184.785C182.797 184.986 182.748 185.184 182.748 185.383L185.299 201.383C185.299 201.881 185.299 202.628 185.299 203.626ZM194.903 213.944C195.002 214.841 194.802 215.339 194.303 215.439C194.003 215.439 193.501 215.239 192.802 214.841C192.402 215.537 191.801 216.434 191.001 217.532C189.801 218.827 188.3 219.674 186.499 220.074L185.299 220.224C186.598 219.625 188.099 218.677 189.801 217.382C191.302 216.186 192.3 215.039 192.802 213.943C193.201 213.144 193.501 212.695 193.703 212.597C194.202 212.598 194.603 213.047 194.903 213.944ZM194.003 187.178C194.003 187.577 193.853 188.026 193.553 188.523C193.252 188.224 193.001 188.075 192.802 188.075C192.3 188.075 191.902 188.724 191.602 190.019C191.4 191.115 191.25 192.113 191.152 193.009C190.95 192.311 190.451 191.314 189.651 190.019C189.55 190.517 189.25 190.766 188.751 190.766C187.949 190.766 187.551 190.318 187.551 189.421C187.551 188.324 187.9 187.776 188.601 187.776C189.501 187.776 190.301 188.823 191.002 190.916C191.602 187.327 192.353 185.533 193.253 185.533C193.752 185.533 194.003 186.082 194.003 187.178ZM194.453 195.402L193.402 197.047C192.801 197.245 192.15 197.444 191.451 197.645C190.349 197.944 189.801 198.393 189.801 198.991C190.3 200.883 190.551 202.229 190.551 203.028C190.551 204.823 190.499 205.87 190.401 206.168C190.401 205.07 190.2 203.65 189.801 201.907C189.401 200.161 189.2 199.04 189.2 198.542C189.2 197.545 189.524 196.898 190.176 196.599C190.825 196.299 191.451 196.049 192.052 195.851C191.55 195.65 191.152 195.552 190.851 195.552C190.95 195.552 190.65 195.75 189.952 196.15L190.101 195.402C190.3 195.103 190.526 194.729 190.777 194.281C191.025 193.832 191.302 193.608 191.602 193.608C192.202 193.607 193.152 194.206 194.453 195.402ZM194.603 214.393C194.203 213.794 193.752 213.645 193.252 213.944C193.752 214.341 194.202 214.49 194.603 214.393ZM197.755 210.355C197.454 210.154 197.004 209.706 196.403 209.009C196.403 209.507 196.528 210.079 196.778 210.729C197.027 211.376 197.304 211.701 197.604 211.701C197.703 211.701 197.755 211.252 197.755 210.355ZM274.891 216.636C274.389 216.636 274.039 216.336 273.84 215.739C273.139 216.636 272.489 217.084 271.889 217.084C271.688 217.084 271.365 216.935 270.914 216.636C270.464 216.336 270.187 216.187 270.088 216.187C269.586 216.187 268.637 216.487 267.237 217.084C265.435 217.881 263.984 218.479 262.884 218.879C260.683 219.575 258.281 219.925 255.681 219.925L255.532 219.626C257.731 219.626 259.932 219.177 262.135 218.28C263.335 217.88 265.035 217.084 267.238 215.888C268.837 214.991 269.988 214.542 270.689 214.542C270.888 214.542 271.188 214.74 271.589 215.14C271.988 215.538 272.339 215.739 272.64 215.739C273.038 215.739 273.489 215.239 273.991 214.243L274.44 213.944C274.339 214.741 274.59 215.14 275.191 215.14C275.492 215.14 275.792 214.64 276.091 213.645L276.391 213.496C276.391 215.589 275.89 216.636 274.891 216.636ZM286.746 189.421C286.746 189.818 286.544 190.318 286.145 190.916C285.845 190.516 285.594 190.318 285.395 190.318C284.893 190.318 284.495 191.013 284.194 192.411C284.093 193.308 283.944 194.255 283.745 195.252C283.444 194.554 282.942 193.557 282.244 192.262C282.142 192.76 281.843 193.009 281.344 193.009C280.541 193.009 280.143 192.561 280.143 191.664C280.143 190.565 280.493 190.019 281.194 190.019C282.094 190.019 282.893 191.066 283.595 193.159C284.195 189.57 284.945 187.776 285.846 187.776C286.446 187.776 286.746 188.325 286.746 189.421ZM285.546 200.935C285.546 202.729 284.994 203.626 283.895 203.626C282.893 203.626 282.394 203.077 282.394 201.981C282.394 201.283 282.593 200.435 282.995 199.439C283.595 198.243 283.895 197.545 283.895 197.346C284.094 198.142 284.144 198.692 284.045 198.99C285.044 199.589 285.546 200.236 285.546 200.935ZM285.095 201.682C284.695 201.182 284.094 200.785 283.295 200.486C282.994 200.984 282.844 201.283 282.844 201.383C282.844 201.881 283.194 202.131 283.895 202.131C284.394 202.131 284.795 201.981 285.095 201.682ZM292.599 215.888L291.548 218.28L288.997 216.933L290.048 214.542L292.599 215.888Z" fill="white"/>
<defs>
<filter id="filter0_f_132_1151" x="-10" y="63" width="395" height="252" filterUnits="userSpaceOnUse" color-interpolation-filters="sRGB">
<feFlood flood-opacity="0" result="BackgroundImageFix"/>
<feBlend mode="normal" in="SourceGraphic" in2="BackgroundImageFix" result="shape"/>
<feGaussianBlur stdDeviation="25" result="effect1_foregroundBlur_132_1151"/>
</filter>
<linearGradient id="paint0_linear_132_1151" x1="24" y1="0" x2="317.443" y2="325.274" gradientUnits="userSpaceOnUse">
<stop stop-color="#DF98FA"/>
<stop offset="1" stop-color="#9055FF"/>
</linearGradient>
<clipPath id="clip0_132_1151">
<rect x="24" width="327" height="257" rx="20" fill="white"/>
</clipPath>
</defs>
</svg>
