<svg width="375" height="315" viewBox="0 0 375 315" fill="none" xmlns="http://www.w3.org/2000/svg">
<g filter="url(#filter0_f_132_1151)">
<rect x="40" y="113" width="295" height="152" rx="20" fill="#240F4F"/>
</g>
<g clip-path="url(#clip0_132_1151)">
<rect x="24" width="327" height="295" fill="url(#paint0_linear_132_1151)"/>
<g style="mix-blend-mode:soft-light" opacity="0.2">
<path opacity="0.25" d="M244.056 295C321.288 295 383.896 280.435 383.896 262.467C383.896 244.5 321.288 229.934 244.056 229.934C166.824 229.934 104.215 244.5 104.215 262.467C104.215 280.435 166.824 295 244.056 295Z" fill="#042030"/>
<path d="M353.574 105.465L244.056 142.883L134.426 105.465L82 181.634L244.056 237.04L406 181.634L353.574 105.465Z" fill="#4E2999"/>
<path opacity="0.45" d="M101.105 178.525L235.503 229.934L189.297 184.188C189.297 184.188 113.434 165.867 101.105 178.525Z" fill="#240F4F"/>
<path opacity="0.45" d="M387.007 178.525L252.608 229.934L298.815 184.188C298.703 184.188 374.566 165.867 387.007 178.525Z" fill="#240F4F"/>
<path d="M244.056 237.04L82 181.634V188.852L244.056 244.257L406 188.852V181.634L244.056 237.04Z" fill="#994EF8"/>
<path d="M157.752 270.35L176.523 221.162L236.947 241.815L157.752 270.35Z" fill="#3B1E77"/>
<path opacity="0.45" d="M162.972 256.138L236.947 241.815L176.523 221.162L162.972 256.138Z" fill="#3B1E77"/>
<path d="M244.056 239.261L157.752 270.35L164.194 277.124L244.056 248.699L323.806 277.124L330.359 270.35L244.056 239.261Z" fill="#994EF8"/>
<path d="M330.359 270.35L311.477 221.162L251.053 241.815L330.359 270.35Z" fill="#3B1E77"/>
<path opacity="0.45" d="M325.028 256.138L251.053 241.815L311.477 221.162L325.028 256.138Z" fill="#3B1E77"/>
<path d="M244.055 248.699C247.307 248.699 249.942 246.064 249.942 242.814C249.942 239.564 247.307 236.929 244.055 236.929C240.804 236.929 238.169 239.564 238.169 242.814C238.169 246.064 240.804 248.699 244.055 248.699Z" fill="white" fill-opacity="0.5"/>
<path d="M348.909 105.465L244.056 157.651L139.203 105.465C134.427 111.794 95.9952 175.861 95.9952 175.861C96.4395 175.861 96.7728 175.972 97.217 175.972C193.628 185.632 220.397 215.944 229.283 223.272C238.169 230.711 244.167 229.934 244.167 229.934C244.167 229.934 250.165 230.711 259.05 223.272C267.936 215.944 294.705 185.632 391.116 175.972C391.561 175.972 391.894 175.861 392.338 175.861C392.116 175.861 353.574 111.905 348.909 105.465Z" fill="#F5B304"/>
<path d="M392.116 175.861C391.672 175.861 391.338 175.972 390.894 175.972C294.483 185.632 267.714 215.944 258.828 223.272C249.942 230.711 243.944 229.934 243.944 229.934C243.944 229.934 237.947 230.711 229.061 223.272C220.175 215.944 193.406 185.632 96.9949 175.972C96.5506 175.972 96.2173 175.861 95.7731 175.861C94.9955 177.082 95.7731 177.97 95.7731 177.97C193.184 187.408 219.064 217.831 227.95 225.271C236.836 232.599 243.833 232.044 243.833 232.044C243.833 232.044 250.831 232.599 259.717 225.271C268.603 217.942 294.483 187.519 391.894 177.97C392.116 177.97 392.893 177.082 392.116 175.861Z" fill="#994EF8"/>
<path d="M344.91 99.3581C291.262 86.4782 243.944 130.559 243.944 130.559C243.944 130.559 196.627 86.4782 142.979 99.3581C142.979 99.3581 127.762 122.675 106.769 162.314C106.769 162.314 212.4 174.195 243.944 218.498C275.489 174.195 381.12 162.314 381.12 162.314C360.127 122.675 344.91 99.3581 344.91 99.3581Z" fill="#F5EFFB"/>
<path d="M381.12 162.314C381.12 162.314 275.489 174.195 243.944 218.498C212.511 174.195 106.88 162.314 106.88 162.314C106.88 162.314 106.88 165.867 100.993 172.863C100.993 172.863 196.85 179.747 231.726 219.497C239.946 228.824 243.944 227.713 243.944 227.713C243.944 227.713 248.054 228.824 256.163 219.497C290.928 179.747 386.896 172.863 386.896 172.863C381.12 165.756 381.12 162.314 381.12 162.314Z" fill="#DFCBF4"/>
<path d="M338.912 104.022C338.912 104.022 298.815 93.8064 243.944 136.332C189.185 93.9174 148.977 104.022 148.977 104.022L121.875 156.652C204.291 162.314 243.944 203.952 243.944 203.952C243.944 203.952 283.597 162.314 366.014 156.652L338.912 104.022ZM244.056 198.956C244.056 198.956 206.957 160.982 128.317 153.543L151.087 106.242C151.087 106.242 190.518 98.5809 244.056 138.775C297.593 98.5809 337.024 106.242 337.024 106.242L359.794 153.543C281.154 160.982 244.056 198.956 244.056 198.956Z" fill="#863ED5"/>
<path opacity="0.2" d="M254.163 175.965C268.973 165.046 315.253 140.885 346.354 144.216" stroke="#863ED5" stroke-width="3" stroke-linecap="round"/>
<path opacity="0.2" d="M254.163 145.326C267.307 135.038 301.48 114.882 333.025 116.555" stroke="#863ED5" stroke-width="3" stroke-linecap="round"/>
<path opacity="0.2" d="M254.163 160.871C268.418 149.792 305.479 128.084 339.689 129.887" stroke="#863ED5" stroke-width="3" stroke-linecap="round"/>
<path opacity="0.2" d="M235.281 175.965C220.471 165.046 174.191 140.885 143.09 144.216" stroke="#863ED5" stroke-width="3" stroke-linecap="round"/>
<path opacity="0.2" d="M235.281 145.326C222.137 135.038 187.964 114.882 156.419 116.555" stroke="#863ED5" stroke-width="3" stroke-linecap="round"/>
<path opacity="0.2" d="M235.281 160.871C221.026 149.792 183.965 128.084 149.755 129.887" stroke="#863ED5" stroke-width="3" stroke-linecap="round"/>
<path d="M244.056 130.559C244.056 130.559 245.166 126.672 247.277 127.783C247.277 127.783 245.944 190.739 248.165 215.278C248.721 221.384 254.052 229.712 256.162 232.821H253.386L252.608 235.375C252.608 235.375 244.389 221.496 244.056 216.055C242.389 191.627 243.278 136.443 244.056 130.559Z" fill="#54DAF5"/>
</g>
</g>
<path d="M135.649 53.308H128.083L126.783 57H123.689L130.163 38.904H133.595L140.069 57H136.949L135.649 53.308ZM134.817 50.89L131.879 42.492L128.915 50.89H134.817ZM145.848 37.76V57H142.884V37.76H145.848ZM150.207 38.93H153.431L150.701 45.118H148.621L150.207 38.93ZM165.754 38.93V57H162.79V38.93H165.754ZM186.987 42.44C188.114 42.44 189.119 42.674 190.003 43.142C190.905 43.61 191.607 44.3033 192.109 45.222C192.629 46.1407 192.889 47.25 192.889 48.55V57H189.951V48.992C189.951 47.7093 189.631 46.73 188.989 46.054C188.348 45.3607 187.473 45.014 186.363 45.014C185.254 45.014 184.37 45.3607 183.711 46.054C183.07 46.73 182.749 47.7093 182.749 48.992V57H179.811V48.992C179.811 47.7093 179.491 46.73 178.849 46.054C178.208 45.3607 177.333 45.014 176.223 45.014C175.114 45.014 174.23 45.3607 173.571 46.054C172.93 46.73 172.609 47.7093 172.609 48.992V57H169.645V42.674H172.609V44.312C173.095 43.7227 173.71 43.2633 174.455 42.934C175.201 42.6047 175.998 42.44 176.847 42.44C177.991 42.44 179.014 42.6827 179.915 43.168C180.817 43.6533 181.51 44.3553 181.995 45.274C182.429 44.4073 183.105 43.7227 184.023 43.22C184.942 42.7 185.93 42.44 186.987 42.44ZM199.625 44.754C200.058 44.026 200.63 43.4627 201.341 43.064C202.069 42.648 202.927 42.44 203.915 42.44V45.508H203.161C202 45.508 201.116 45.8027 200.509 46.392C199.92 46.9813 199.625 48.004 199.625 49.46V57H196.661V42.674H199.625V44.754ZM205.651 49.772C205.651 48.3333 205.946 47.0593 206.535 45.95C207.142 44.8407 207.957 43.9827 208.979 43.376C210.019 42.752 211.163 42.44 212.411 42.44C213.538 42.44 214.517 42.6653 215.349 43.116C216.199 43.5493 216.875 44.0953 217.377 44.754V42.674H220.367V57H217.377V54.868C216.875 55.544 216.19 56.1073 215.323 56.558C214.457 57.0087 213.469 57.234 212.359 57.234C211.129 57.234 210.002 56.922 208.979 56.298C207.957 55.6567 207.142 54.7727 206.535 53.646C205.946 52.502 205.651 51.2107 205.651 49.772ZM217.377 49.824C217.377 48.836 217.169 47.978 216.753 47.25C216.355 46.522 215.826 45.9673 215.167 45.586C214.509 45.2047 213.798 45.014 213.035 45.014C212.273 45.014 211.562 45.2047 210.903 45.586C210.245 45.95 209.707 46.496 209.291 47.224C208.893 47.9347 208.693 48.784 208.693 49.772C208.693 50.76 208.893 51.6267 209.291 52.372C209.707 53.1173 210.245 53.6893 210.903 54.088C211.579 54.4693 212.29 54.66 213.035 54.66C213.798 54.66 214.509 54.4693 215.167 54.088C215.826 53.7067 216.355 53.152 216.753 52.424C217.169 51.6787 217.377 50.812 217.377 49.824ZM231.489 42.44C232.615 42.44 233.621 42.674 234.505 43.142C235.406 43.61 236.108 44.3033 236.611 45.222C237.113 46.1407 237.365 47.25 237.365 48.55V57H234.427V48.992C234.427 47.7093 234.106 46.73 233.465 46.054C232.823 45.3607 231.948 45.014 230.839 45.014C229.729 45.014 228.845 45.3607 228.187 46.054C227.545 46.73 227.225 47.7093 227.225 48.992V57H224.261V42.674H227.225V44.312C227.71 43.7227 228.325 43.2633 229.071 42.934C229.833 42.6047 230.639 42.44 231.489 42.44Z" fill="white"/>
<path d="M137.032 77.88V89H135.208V77.88H137.032ZM150.099 80.04C150.792 80.04 151.411 80.184 151.955 80.472C152.509 80.76 152.941 81.1867 153.251 81.752C153.571 82.3173 153.731 83 153.731 83.8V89H151.923V84.072C151.923 83.2827 151.725 82.68 151.331 82.264C150.936 81.8373 150.397 81.624 149.715 81.624C149.032 81.624 148.488 81.8373 148.083 82.264C147.688 82.68 147.491 83.2827 147.491 84.072V89H145.683V84.072C145.683 83.2827 145.485 82.68 145.091 82.264C144.696 81.8373 144.157 81.624 143.475 81.624C142.792 81.624 142.248 81.8373 141.843 82.264C141.448 82.68 141.251 83.2827 141.251 84.072V89H139.427V80.184H141.251V81.192C141.549 80.8293 141.928 80.5467 142.387 80.344C142.845 80.1413 143.336 80.04 143.859 80.04C144.563 80.04 145.192 80.1893 145.747 80.488C146.301 80.7867 146.728 81.2187 147.027 81.784C147.293 81.2507 147.709 80.8293 148.275 80.52C148.84 80.2 149.448 80.04 150.099 80.04ZM157.876 81.464C158.142 81.016 158.494 80.6693 158.932 80.424C159.38 80.168 159.908 80.04 160.516 80.04V81.928H160.052C159.337 81.928 158.793 82.1093 158.42 82.472C158.057 82.8347 157.876 83.464 157.876 84.36V89H156.052V80.184H157.876V81.464ZM166.016 89.144C165.184 89.144 164.432 88.9573 163.76 88.584C163.088 88.2 162.56 87.6667 162.176 86.984C161.792 86.2907 161.6 85.4907 161.6 84.584C161.6 83.688 161.798 82.8933 162.192 82.2C162.587 81.5067 163.126 80.9733 163.808 80.6C164.491 80.2267 165.254 80.04 166.096 80.04C166.939 80.04 167.702 80.2267 168.384 80.6C169.067 80.9733 169.606 81.5067 170 82.2C170.395 82.8933 170.592 83.688 170.592 84.584C170.592 85.48 170.39 86.2747 169.984 86.968C169.579 87.6613 169.024 88.2 168.32 88.584C167.627 88.9573 166.859 89.144 166.016 89.144ZM166.016 87.56C166.486 87.56 166.923 87.448 167.328 87.224C167.744 87 168.08 86.664 168.336 86.216C168.592 85.768 168.72 85.224 168.72 84.584C168.72 83.944 168.598 83.4053 168.352 82.968C168.107 82.52 167.782 82.184 167.376 81.96C166.971 81.736 166.534 81.624 166.064 81.624C165.595 81.624 165.158 81.736 164.752 81.96C164.358 82.184 164.043 82.52 163.808 82.968C163.574 83.4053 163.456 83.944 163.456 84.584C163.456 85.5333 163.696 86.2693 164.176 86.792C164.667 87.304 165.28 87.56 166.016 87.56ZM176.843 80.04C177.537 80.04 178.155 80.184 178.699 80.472C179.254 80.76 179.686 81.1867 179.995 81.752C180.305 82.3173 180.459 83 180.459 83.8V89H178.651V84.072C178.651 83.2827 178.454 82.68 178.059 82.264C177.665 81.8373 177.126 81.624 176.443 81.624C175.761 81.624 175.217 81.8373 174.811 82.264C174.417 82.68 174.219 83.2827 174.219 84.072V89H172.395V80.184H174.219V81.192C174.518 80.8293 174.897 80.5467 175.355 80.344C175.825 80.1413 176.321 80.04 176.843 80.04ZM190.766 89.144C189.934 89.144 189.182 88.9573 188.51 88.584C187.838 88.2 187.31 87.6667 186.926 86.984C186.542 86.2907 186.35 85.4907 186.35 84.584C186.35 83.688 186.548 82.8933 186.942 82.2C187.337 81.5067 187.876 80.9733 188.558 80.6C189.241 80.2267 190.004 80.04 190.846 80.04C191.689 80.04 192.452 80.2267 193.134 80.6C193.817 80.9733 194.356 81.5067 194.75 82.2C195.145 82.8933 195.342 83.688 195.342 84.584C195.342 85.48 195.14 86.2747 194.734 86.968C194.329 87.6613 193.774 88.2 193.07 88.584C192.377 88.9573 191.609 89.144 190.766 89.144ZM190.766 87.56C191.236 87.56 191.673 87.448 192.078 87.224C192.494 87 192.83 86.664 193.086 86.216C193.342 85.768 193.47 85.224 193.47 84.584C193.47 83.944 193.348 83.4053 193.102 82.968C192.857 82.52 192.532 82.184 192.126 81.96C191.721 81.736 191.284 81.624 190.814 81.624C190.345 81.624 189.908 81.736 189.502 81.96C189.108 82.184 188.793 82.52 188.558 82.968C188.324 83.4053 188.206 83.944 188.206 84.584C188.206 85.5333 188.446 86.2693 188.926 86.792C189.417 87.304 190.03 87.56 190.766 87.56ZM198.073 79.016C197.743 79.016 197.465 78.904 197.241 78.68C197.017 78.456 196.905 78.1787 196.905 77.848C196.905 77.5173 197.017 77.24 197.241 77.016C197.465 76.792 197.743 76.68 198.073 76.68C198.393 76.68 198.665 76.792 198.889 77.016C199.113 77.24 199.225 77.5173 199.225 77.848C199.225 78.1787 199.113 78.456 198.889 78.68C198.665 78.904 198.393 79.016 198.073 79.016ZM198.969 80.184V89H197.145V80.184H198.969ZM203.188 77.16V89H201.364V77.16H203.188ZM204.975 84.552C204.975 83.6667 205.156 82.8827 205.519 82.2C205.892 81.5173 206.393 80.9893 207.023 80.616C207.663 80.232 208.367 80.04 209.135 80.04C209.828 80.04 210.431 80.1787 210.943 80.456C211.465 80.7227 211.881 81.0587 212.191 81.464V80.184H214.031V89H212.191V87.688C211.881 88.104 211.46 88.4507 210.927 88.728C210.393 89.0053 209.785 89.144 209.103 89.144C208.345 89.144 207.652 88.952 207.023 88.568C206.393 88.1733 205.892 87.6293 205.519 86.936C205.156 86.232 204.975 85.4373 204.975 84.552ZM212.191 84.584C212.191 83.976 212.063 83.448 211.807 83C211.561 82.552 211.236 82.2107 210.831 81.976C210.425 81.7413 209.988 81.624 209.519 81.624C209.049 81.624 208.612 81.7413 208.207 81.976C207.801 82.2 207.471 82.536 207.215 82.984C206.969 83.4213 206.847 83.944 206.847 84.552C206.847 85.16 206.969 85.6933 207.215 86.152C207.471 86.6107 207.801 86.9627 208.207 87.208C208.623 87.4427 209.06 87.56 209.519 87.56C209.988 87.56 210.425 87.4427 210.831 87.208C211.236 86.9733 211.561 86.632 211.807 86.184C212.063 85.7253 212.191 85.192 212.191 84.584ZM219.627 89.144C218.933 89.144 218.309 89.0213 217.755 88.776C217.211 88.52 216.779 88.1787 216.459 87.752C216.139 87.3147 215.968 86.8293 215.947 86.296H217.835C217.867 86.6693 218.043 86.984 218.363 87.24C218.693 87.4853 219.104 87.608 219.595 87.608C220.107 87.608 220.501 87.512 220.779 87.32C221.067 87.1173 221.211 86.8613 221.211 86.552C221.211 86.2213 221.051 85.976 220.731 85.816C220.421 85.656 219.925 85.48 219.243 85.288C218.581 85.1067 218.043 84.9307 217.627 84.76C217.211 84.5893 216.848 84.328 216.539 83.976C216.24 83.624 216.091 83.16 216.091 82.584C216.091 82.1147 216.229 81.688 216.507 81.304C216.784 80.9093 217.179 80.6 217.691 80.376C218.213 80.152 218.811 80.04 219.483 80.04C220.485 80.04 221.291 80.296 221.899 80.808C222.517 81.3093 222.848 81.9973 222.891 82.872H221.067C221.035 82.4773 220.875 82.1627 220.587 81.928C220.299 81.6933 219.909 81.576 219.419 81.576C218.939 81.576 218.571 81.6667 218.315 81.848C218.059 82.0293 217.931 82.2693 217.931 82.568C217.931 82.8027 218.016 83 218.187 83.16C218.357 83.32 218.565 83.448 218.811 83.544C219.056 83.6293 219.419 83.7413 219.899 83.88C220.539 84.0507 221.061 84.2267 221.467 84.408C221.883 84.5787 222.24 84.8347 222.539 85.176C222.837 85.5173 222.992 85.9707 223.003 86.536C223.003 87.0373 222.864 87.4853 222.587 87.88C222.309 88.2747 221.915 88.584 221.403 88.808C220.901 89.032 220.309 89.144 219.627 89.144ZM225.901 79.016C225.571 79.016 225.293 78.904 225.069 78.68C224.845 78.456 224.733 78.1787 224.733 77.848C224.733 77.5173 224.845 77.24 225.069 77.016C225.293 76.792 225.571 76.68 225.901 76.68C226.221 76.68 226.493 76.792 226.717 77.016C226.941 77.24 227.053 77.5173 227.053 77.848C227.053 78.1787 226.941 78.456 226.717 78.68C226.493 78.904 226.221 79.016 225.901 79.016ZM226.797 80.184V89H224.973V80.184H226.797Z" fill="white"/>
<line x1="81" y1="110.5" x2="281" y2="110.5" stroke="white" stroke-opacity="0.35"/>
<path d="M126.798 132.27V142H125.202V135.336L122.234 142H121.128L118.146 135.336V142H116.55V132.27H118.272L121.688 139.9L125.09 132.27H126.798ZM134.762 140.012H130.688L129.988 142H128.322L131.808 132.256H133.656L137.142 142H135.462L134.762 140.012ZM134.314 138.71L132.732 134.188L131.136 138.71H134.314ZM144.019 142L140.253 137.646V142H138.657V132.27H140.253V136.708L144.033 132.27H146.035L141.807 137.142L146.105 142H144.019ZM152.879 142L149.113 137.646V142H147.517V132.27H149.113V136.708L152.893 132.27H154.895L150.667 137.142L154.965 142H152.879ZM162.242 140.012H158.168L157.468 142H155.802L159.288 132.256H161.136L164.622 142H162.942L162.242 140.012ZM161.794 138.71L160.212 134.188L158.616 138.71H161.794Z" fill="white"/>
<circle cx="172.5" cy="137.5" r="2" fill="white" fill-opacity="0.35"/>
<path d="M181.222 139.83C182.118 139.055 182.823 138.421 183.336 137.926C183.859 137.422 184.293 136.899 184.638 136.358C184.983 135.817 185.156 135.275 185.156 134.734C185.156 134.174 185.021 133.735 184.75 133.418C184.489 133.101 184.073 132.942 183.504 132.942C182.953 132.942 182.524 133.119 182.216 133.474C181.917 133.819 181.759 134.286 181.74 134.874H180.2C180.228 133.81 180.545 132.998 181.152 132.438C181.768 131.869 182.547 131.584 183.49 131.584C184.507 131.584 185.301 131.864 185.87 132.424C186.449 132.984 186.738 133.731 186.738 134.664C186.738 135.336 186.565 135.985 186.22 136.61C185.884 137.226 185.478 137.781 185.002 138.276C184.535 138.761 183.938 139.326 183.21 139.97L182.58 140.53H187.018V141.86H180.214V140.698L181.222 139.83ZM188.42 136.764C188.42 135.149 188.691 133.889 189.232 132.984C189.783 132.069 190.725 131.612 192.06 131.612C193.395 131.612 194.333 132.069 194.874 132.984C195.425 133.889 195.7 135.149 195.7 136.764C195.7 138.397 195.425 139.676 194.874 140.6C194.333 141.515 193.395 141.972 192.06 141.972C190.725 141.972 189.783 141.515 189.232 140.6C188.691 139.676 188.42 138.397 188.42 136.764ZM194.132 136.764C194.132 136.008 194.081 135.369 193.978 134.846C193.885 134.323 193.689 133.899 193.39 133.572C193.091 133.236 192.648 133.068 192.06 133.068C191.472 133.068 191.029 133.236 190.73 133.572C190.431 133.899 190.231 134.323 190.128 134.846C190.035 135.369 189.988 136.008 189.988 136.764C189.988 137.548 190.035 138.206 190.128 138.738C190.221 139.27 190.417 139.699 190.716 140.026C191.024 140.353 191.472 140.516 192.06 140.516C192.648 140.516 193.091 140.353 193.39 140.026C193.698 139.699 193.899 139.27 193.992 138.738C194.085 138.206 194.132 137.548 194.132 136.764ZM197.389 136.764C197.389 135.149 197.659 133.889 198.201 132.984C198.751 132.069 199.694 131.612 201.029 131.612C202.363 131.612 203.301 132.069 203.843 132.984C204.393 133.889 204.669 135.149 204.669 136.764C204.669 138.397 204.393 139.676 203.843 140.6C203.301 141.515 202.363 141.972 201.029 141.972C199.694 141.972 198.751 141.515 198.201 140.6C197.659 139.676 197.389 138.397 197.389 136.764ZM203.101 136.764C203.101 136.008 203.049 135.369 202.947 134.846C202.853 134.323 202.657 133.899 202.359 133.572C202.06 133.236 201.617 133.068 201.029 133.068C200.441 133.068 199.997 133.236 199.699 133.572C199.4 133.899 199.199 134.323 199.097 134.846C199.003 135.369 198.957 136.008 198.957 136.764C198.957 137.548 199.003 138.206 199.097 138.738C199.19 139.27 199.386 139.699 199.685 140.026C199.993 140.353 200.441 140.516 201.029 140.516C201.617 140.516 202.06 140.353 202.359 140.026C202.667 139.699 202.867 139.27 202.961 138.738C203.054 138.206 203.101 137.548 203.101 136.764ZM214.642 142.098C213.737 142.098 212.902 141.888 212.136 141.468C211.38 141.039 210.778 140.446 210.33 139.69C209.892 138.925 209.672 138.066 209.672 137.114C209.672 136.162 209.892 135.308 210.33 134.552C210.778 133.796 211.38 133.208 212.136 132.788C212.902 132.359 213.737 132.144 214.642 132.144C215.557 132.144 216.392 132.359 217.148 132.788C217.914 133.208 218.516 133.796 218.954 134.552C219.393 135.308 219.612 136.162 219.612 137.114C219.612 138.066 219.393 138.925 218.954 139.69C218.516 140.446 217.914 141.039 217.148 141.468C216.392 141.888 215.557 142.098 214.642 142.098ZM214.642 140.712C215.286 140.712 215.86 140.567 216.364 140.278C216.868 139.979 217.26 139.559 217.54 139.018C217.83 138.467 217.974 137.833 217.974 137.114C217.974 136.395 217.83 135.765 217.54 135.224C217.26 134.683 216.868 134.267 216.364 133.978C215.86 133.689 215.286 133.544 214.642 133.544C213.998 133.544 213.424 133.689 212.92 133.978C212.416 134.267 212.02 134.683 211.73 135.224C211.45 135.765 211.31 136.395 211.31 137.114C211.31 137.833 211.45 138.467 211.73 139.018C212.02 139.559 212.416 139.979 212.92 140.278C213.424 140.567 213.998 140.712 214.642 140.712ZM228.393 132.27L225.173 138.472V142H223.577V138.472L220.343 132.27H222.121L224.375 137.044L226.629 132.27H228.393ZM235.525 140.012H231.451L230.751 142H229.085L232.571 132.256H234.419L237.905 142H236.225L235.525 140.012ZM235.077 138.71L233.495 134.188L231.899 138.71H235.077ZM245.707 132.27V133.572H243.117V142H241.521V133.572H238.917V132.27H245.707Z" fill="white"/>
<defs>
<filter id="filter0_f_132_1151" x="-10" y="63" width="395" height="252" filterUnits="userSpaceOnUse" color-interpolation-filters="sRGB">
<feFlood flood-opacity="0" result="BackgroundImageFix"/>
<feBlend mode="normal" in="SourceGraphic" in2="BackgroundImageFix" result="shape"/>
<feGaussianBlur stdDeviation="25" result="effect1_foregroundBlur_132_1151"/>
</filter>
<linearGradient id="paint0_linear_132_1151" x1="24" y1="0" x2="317.443" y2="325.274" gradientUnits="userSpaceOnUse">
<stop stop-color="#DF98FA"/>
<stop offset="1" stop-color="#9055FF"/>
</linearGradient>
<clipPath id="clip0_132_1151">
<rect x="24" width="327" height="257" rx="20" fill="white"/>
</clipPath>
</defs>
</svg>
