<svg width="375" height="315" viewBox="0 0 375 315" fill="none" xmlns="http://www.w3.org/2000/svg">
<g filter="url(#filter0_f_132_1151)">
<rect x="40" y="113" width="295" height="152" rx="20" fill="#240F4F"/>
</g>
<g clip-path="url(#clip0_132_1151)">
<rect x="24" width="327" height="295" fill="url(#paint0_linear_132_1151)"/>
<g style="mix-blend-mode:soft-light" opacity="0.2">
<path opacity="0.25" d="M244.056 295C321.288 295 383.896 280.435 383.896 262.467C383.896 244.5 321.288 229.934 244.056 229.934C166.824 229.934 104.215 244.5 104.215 262.467C104.215 280.435 166.824 295 244.056 295Z" fill="#042030"/>
<path d="M353.574 105.465L244.056 142.883L134.426 105.465L82 181.634L244.056 237.04L406 181.634L353.574 105.465Z" fill="#4E2999"/>
<path opacity="0.45" d="M101.105 178.525L235.503 229.934L189.297 184.188C189.297 184.188 113.434 165.867 101.105 178.525Z" fill="#240F4F"/>
<path opacity="0.45" d="M387.007 178.525L252.608 229.934L298.815 184.188C298.703 184.188 374.566 165.867 387.007 178.525Z" fill="#240F4F"/>
<path d="M244.056 237.04L82 181.634V188.852L244.056 244.257L406 188.852V181.634L244.056 237.04Z" fill="#994EF8"/>
<path d="M157.752 270.35L176.523 221.162L236.947 241.815L157.752 270.35Z" fill="#3B1E77"/>
<path opacity="0.45" d="M162.972 256.138L236.947 241.815L176.523 221.162L162.972 256.138Z" fill="#3B1E77"/>
<path d="M244.056 239.261L157.752 270.35L164.194 277.124L244.056 248.699L323.806 277.124L330.359 270.35L244.056 239.261Z" fill="#994EF8"/>
<path d="M330.359 270.35L311.477 221.162L251.053 241.815L330.359 270.35Z" fill="#3B1E77"/>
<path opacity="0.45" d="M325.028 256.138L251.053 241.815L311.477 221.162L325.028 256.138Z" fill="#3B1E77"/>
<path d="M244.055 248.699C247.307 248.699 249.942 246.064 249.942 242.814C249.942 239.564 247.307 236.929 244.055 236.929C240.804 236.929 238.169 239.564 238.169 242.814C238.169 246.064 240.804 248.699 244.055 248.699Z" fill="white" fill-opacity="0.5"/>
<path d="M348.909 105.465L244.056 157.651L139.203 105.465C134.427 111.794 95.9952 175.861 95.9952 175.861C96.4395 175.861 96.7728 175.972 97.217 175.972C193.628 185.632 220.397 215.944 229.283 223.272C238.169 230.711 244.167 229.934 244.167 229.934C244.167 229.934 250.165 230.711 259.05 223.272C267.936 215.944 294.705 185.632 391.116 175.972C391.561 175.972 391.894 175.861 392.338 175.861C392.116 175.861 353.574 111.905 348.909 105.465Z" fill="#F5B304"/>
<path d="M392.116 175.861C391.672 175.861 391.338 175.972 390.894 175.972C294.483 185.632 267.714 215.944 258.828 223.272C249.942 230.711 243.944 229.934 243.944 229.934C243.944 229.934 237.947 230.711 229.061 223.272C220.175 215.944 193.406 185.632 96.9949 175.972C96.5506 175.972 96.2173 175.861 95.7731 175.861C94.9955 177.082 95.7731 177.97 95.7731 177.97C193.184 187.408 219.064 217.831 227.95 225.271C236.836 232.599 243.833 232.044 243.833 232.044C243.833 232.044 250.831 232.599 259.717 225.271C268.603 217.942 294.483 187.519 391.894 177.97C392.116 177.97 392.893 177.082 392.116 175.861Z" fill="#994EF8"/>
<path d="M344.91 99.3581C291.262 86.4782 243.944 130.559 243.944 130.559C243.944 130.559 196.627 86.4782 142.979 99.3581C142.979 99.3581 127.762 122.675 106.769 162.314C106.769 162.314 212.4 174.195 243.944 218.498C275.489 174.195 381.12 162.314 381.12 162.314C360.127 122.675 344.91 99.3581 344.91 99.3581Z" fill="#F5EFFB"/>
<path d="M381.12 162.314C381.12 162.314 275.489 174.195 243.944 218.498C212.511 174.195 106.88 162.314 106.88 162.314C106.88 162.314 106.88 165.867 100.993 172.863C100.993 172.863 196.85 179.747 231.726 219.497C239.946 228.824 243.944 227.713 243.944 227.713C243.944 227.713 248.054 228.824 256.163 219.497C290.928 179.747 386.896 172.863 386.896 172.863C381.12 165.756 381.12 162.314 381.12 162.314Z" fill="#DFCBF4"/>
<path d="M338.912 104.022C338.912 104.022 298.815 93.8064 243.944 136.332C189.185 93.9174 148.977 104.022 148.977 104.022L121.875 156.652C204.291 162.314 243.944 203.952 243.944 203.952C243.944 203.952 283.597 162.314 366.014 156.652L338.912 104.022ZM244.056 198.956C244.056 198.956 206.957 160.982 128.317 153.543L151.087 106.242C151.087 106.242 190.518 98.5809 244.056 138.775C297.593 98.5809 337.024 106.242 337.024 106.242L359.794 153.543C281.154 160.982 244.056 198.956 244.056 198.956Z" fill="#863ED5"/>
<path opacity="0.2" d="M254.163 175.965C268.973 165.046 315.253 140.885 346.354 144.216" stroke="#863ED5" stroke-width="3" stroke-linecap="round"/>
<path opacity="0.2" d="M254.163 145.326C267.307 135.038 301.48 114.882 333.025 116.555" stroke="#863ED5" stroke-width="3" stroke-linecap="round"/>
<path opacity="0.2" d="M254.163 160.871C268.418 149.792 305.479 128.084 339.689 129.887" stroke="#863ED5" stroke-width="3" stroke-linecap="round"/>
<path opacity="0.2" d="M235.281 175.965C220.471 165.046 174.191 140.885 143.09 144.216" stroke="#863ED5" stroke-width="3" stroke-linecap="round"/>
<path opacity="0.2" d="M235.281 145.326C222.137 135.038 187.964 114.882 156.419 116.555" stroke="#863ED5" stroke-width="3" stroke-linecap="round"/>
<path opacity="0.2" d="M235.281 160.871C221.026 149.792 183.965 128.084 149.755 129.887" stroke="#863ED5" stroke-width="3" stroke-linecap="round"/>
<path d="M244.056 130.559C244.056 130.559 245.166 126.672 247.277 127.783C247.277 127.783 245.944 190.739 248.165 215.278C248.721 221.384 254.052 229.712 256.162 232.821H253.386L252.608 235.375C252.608 235.375 244.389 221.496 244.056 216.055C242.389 191.627 243.278 136.443 244.056 130.559Z" fill="#54DAF5"/>
</g>
</g>
<path d="M140.181 53.308H132.615L131.315 57H128.221L134.695 38.904H138.127L144.601 57H141.481L140.181 53.308ZM139.349 50.89L136.411 42.492L133.447 50.89H139.349ZM154.644 42.44C155.77 42.44 156.776 42.674 157.66 43.142C158.561 43.61 159.263 44.3033 159.766 45.222C160.268 46.1407 160.52 47.25 160.52 48.55V57H157.582V48.992C157.582 47.7093 157.261 46.73 156.62 46.054C155.978 45.3607 155.103 45.014 153.994 45.014C152.884 45.014 152 45.3607 151.342 46.054C150.7 46.73 150.38 47.7093 150.38 48.992V57H147.416V42.674H150.38V44.312C150.865 43.7227 151.48 43.2633 152.226 42.934C152.988 42.6047 153.794 42.44 154.644 42.44ZM175.299 46.34V48.836H164.613V46.34H175.299ZM194.356 57H191.392L182.474 43.506V57H179.51V38.904H182.474L191.392 52.372V38.904H194.356V57ZM199.756 40.776C199.219 40.776 198.768 40.594 198.404 40.23C198.04 39.866 197.858 39.4153 197.858 38.878C197.858 38.3407 198.04 37.89 198.404 37.526C198.768 37.162 199.219 36.98 199.756 36.98C200.276 36.98 200.718 37.162 201.082 37.526C201.446 37.89 201.628 38.3407 201.628 38.878C201.628 39.4153 201.446 39.866 201.082 40.23C200.718 40.594 200.276 40.776 199.756 40.776ZM201.212 42.674V57H198.248V42.674H201.212ZM210.303 57.234C209.177 57.234 208.163 57.0347 207.261 56.636C206.377 56.22 205.675 55.6653 205.155 54.972C204.635 54.2613 204.358 53.4727 204.323 52.606H207.391C207.443 53.2127 207.729 53.724 208.249 54.14C208.787 54.5387 209.454 54.738 210.251 54.738C211.083 54.738 211.725 54.582 212.175 54.27C212.643 53.9407 212.877 53.5247 212.877 53.022C212.877 52.4847 212.617 52.086 212.097 51.826C211.595 51.566 210.789 51.28 209.679 50.968C208.605 50.6733 207.729 50.3873 207.053 50.11C206.377 49.8327 205.788 49.408 205.285 48.836C204.8 48.264 204.557 47.51 204.557 46.574C204.557 45.8113 204.783 45.118 205.233 44.494C205.684 43.8527 206.325 43.35 207.157 42.986C208.007 42.622 208.977 42.44 210.069 42.44C211.699 42.44 213.007 42.856 213.995 43.688C215.001 44.5027 215.538 45.6207 215.607 47.042H212.643C212.591 46.4007 212.331 45.8893 211.863 45.508C211.395 45.1267 210.763 44.936 209.965 44.936C209.185 44.936 208.587 45.0833 208.171 45.378C207.755 45.6727 207.547 46.0627 207.547 46.548C207.547 46.9293 207.686 47.25 207.963 47.51C208.241 47.77 208.579 47.978 208.977 48.134C209.376 48.2727 209.965 48.4547 210.745 48.68C211.785 48.9573 212.635 49.2433 213.293 49.538C213.969 49.8153 214.55 50.2313 215.035 50.786C215.521 51.3407 215.772 52.0773 215.789 52.996C215.789 53.8107 215.564 54.5387 215.113 55.18C214.663 55.8213 214.021 56.324 213.189 56.688C212.375 57.052 211.413 57.234 210.303 57.234ZM218.004 49.772C218.004 48.3333 218.299 47.0593 218.888 45.95C219.495 44.8407 220.309 43.9827 221.332 43.376C222.372 42.752 223.516 42.44 224.764 42.44C225.891 42.44 226.87 42.6653 227.702 43.116C228.551 43.5493 229.227 44.0953 229.73 44.754V42.674H232.72V57H229.73V54.868C229.227 55.544 228.543 56.1073 227.676 56.558C226.809 57.0087 225.821 57.234 224.712 57.234C223.481 57.234 222.355 56.922 221.332 56.298C220.309 55.6567 219.495 54.7727 218.888 53.646C218.299 52.502 218.004 51.2107 218.004 49.772ZM229.73 49.824C229.73 48.836 229.522 47.978 229.106 47.25C228.707 46.522 228.179 45.9673 227.52 45.586C226.861 45.2047 226.151 45.014 225.388 45.014C224.625 45.014 223.915 45.2047 223.256 45.586C222.597 45.95 222.06 46.496 221.644 47.224C221.245 47.9347 221.046 48.784 221.046 49.772C221.046 50.76 221.245 51.6267 221.644 52.372C222.06 53.1173 222.597 53.6893 223.256 54.088C223.932 54.4693 224.643 54.66 225.388 54.66C226.151 54.66 226.861 54.4693 227.52 54.088C228.179 53.7067 228.707 53.152 229.106 52.424C229.522 51.6787 229.73 50.812 229.73 49.824Z" fill="white"/>
<path d="M160.857 86.728H156.201L155.401 89H153.497L157.481 77.864H159.593L163.577 89H161.657L160.857 86.728ZM160.345 85.24L158.537 80.072L156.713 85.24H160.345ZM173.245 80.184L167.837 93.144H165.949L167.741 88.856L164.269 80.184H166.301L168.781 86.904L171.357 80.184H173.245ZM178.446 89.144C177.614 89.144 176.862 88.9573 176.19 88.584C175.518 88.2 174.99 87.6667 174.606 86.984C174.222 86.2907 174.03 85.4907 174.03 84.584C174.03 83.688 174.227 82.8933 174.622 82.2C175.017 81.5067 175.555 80.9733 176.238 80.6C176.921 80.2267 177.683 80.04 178.526 80.04C179.369 80.04 180.131 80.2267 180.814 80.6C181.497 80.9733 182.035 81.5067 182.43 82.2C182.825 82.8933 183.022 83.688 183.022 84.584C183.022 85.48 182.819 86.2747 182.414 86.968C182.009 87.6613 181.454 88.2 180.75 88.584C180.057 88.9573 179.289 89.144 178.446 89.144ZM178.446 87.56C178.915 87.56 179.353 87.448 179.758 87.224C180.174 87 180.51 86.664 180.766 86.216C181.022 85.768 181.15 85.224 181.15 84.584C181.15 83.944 181.027 83.4053 180.782 82.968C180.537 82.52 180.211 82.184 179.806 81.96C179.401 81.736 178.963 81.624 178.494 81.624C178.025 81.624 177.587 81.736 177.182 81.96C176.787 82.184 176.473 82.52 176.238 82.968C176.003 83.4053 175.886 83.944 175.886 84.584C175.886 85.5333 176.126 86.2693 176.606 86.792C177.097 87.304 177.71 87.56 178.446 87.56ZM186.649 77.16V89H184.825V77.16H186.649ZM190.868 77.16V89H189.044V77.16H190.868ZM192.655 84.552C192.655 83.6667 192.836 82.8827 193.199 82.2C193.572 81.5173 194.073 80.9893 194.703 80.616C195.343 80.232 196.047 80.04 196.815 80.04C197.508 80.04 198.111 80.1787 198.623 80.456C199.145 80.7227 199.561 81.0587 199.871 81.464V80.184H201.711V89H199.871V87.688C199.561 88.104 199.14 88.4507 198.607 88.728C198.073 89.0053 197.465 89.144 196.783 89.144C196.025 89.144 195.332 88.952 194.703 88.568C194.073 88.1733 193.572 87.6293 193.199 86.936C192.836 86.232 192.655 85.4373 192.655 84.552ZM199.871 84.584C199.871 83.976 199.743 83.448 199.487 83C199.241 82.552 198.916 82.2107 198.511 81.976C198.105 81.7413 197.668 81.624 197.199 81.624C196.729 81.624 196.292 81.7413 195.887 81.976C195.481 82.2 195.151 82.536 194.895 82.984C194.649 83.4213 194.527 83.944 194.527 84.552C194.527 85.16 194.649 85.6933 194.895 86.152C195.151 86.6107 195.481 86.9627 195.887 87.208C196.303 87.4427 196.74 87.56 197.199 87.56C197.668 87.56 198.105 87.4427 198.511 87.208C198.916 86.9733 199.241 86.632 199.487 86.184C199.743 85.7253 199.871 85.192 199.871 84.584ZM205.93 81.464C206.197 81.016 206.549 80.6693 206.986 80.424C207.434 80.168 207.962 80.04 208.57 80.04V81.928H208.106C207.392 81.928 206.848 82.1093 206.474 82.472C206.112 82.8347 205.93 83.464 205.93 84.36V89H204.106V80.184H205.93V81.464Z" fill="white"/>
<line x1="81" y1="110.5" x2="281" y2="110.5" stroke="white" stroke-opacity="0.35"/>
<path d="M128.798 132.27V142H127.202V135.336L124.234 142H123.128L120.146 135.336V142H118.55V132.27H120.272L123.688 139.9L127.09 132.27H128.798ZM136.762 140.012H132.688L131.988 142H130.322L133.808 132.256H135.656L139.142 142H137.462L136.762 140.012ZM136.314 138.71L134.732 134.188L133.136 138.71H136.314ZM146.019 142L142.253 137.646V142H140.657V132.27H142.253V136.708L146.033 132.27H148.035L143.807 137.142L148.105 142H146.019ZM154.879 142L151.113 137.646V142H149.517V132.27H151.113V136.708L154.893 132.27H156.895L152.667 137.142L156.965 142H154.879ZM164.242 140.012H160.168L159.468 142H157.802L161.288 132.256H163.136L166.622 142H164.942L164.242 140.012ZM163.794 138.71L162.212 134.188L160.616 138.71H163.794Z" fill="white"/>
<circle cx="174.5" cy="137.5" r="2" fill="white" fill-opacity="0.35"/>
<path d="M182.13 133.25V131.794H185.042V142H183.432V133.25H182.13ZM193.703 133.026L189.811 142H188.201L192.135 133.194H186.955V131.836H193.703V133.026ZM200.557 134.16C200.454 133.731 200.267 133.409 199.997 133.194C199.726 132.979 199.348 132.872 198.863 132.872C198.125 132.872 197.575 133.157 197.211 133.726C196.847 134.286 196.655 135.219 196.637 136.526C196.879 136.115 197.234 135.798 197.701 135.574C198.167 135.35 198.671 135.238 199.213 135.238C199.829 135.238 200.37 135.373 200.837 135.644C201.313 135.905 201.681 136.288 201.943 136.792C202.213 137.296 202.349 137.898 202.349 138.598C202.349 139.251 202.218 139.835 201.957 140.348C201.705 140.861 201.327 141.267 200.823 141.566C200.319 141.855 199.712 142 199.003 142C198.041 142 197.285 141.79 196.735 141.37C196.193 140.941 195.811 140.339 195.587 139.564C195.372 138.789 195.265 137.823 195.265 136.666C195.265 133.25 196.469 131.542 198.877 131.542C199.81 131.542 200.543 131.794 201.075 132.298C201.616 132.802 201.933 133.423 202.027 134.16H200.557ZM198.863 136.582C198.293 136.582 197.808 136.755 197.407 137.1C197.015 137.436 196.819 137.926 196.819 138.57C196.819 139.214 197.001 139.727 197.365 140.11C197.738 140.483 198.256 140.67 198.919 140.67C199.507 140.67 199.969 140.488 200.305 140.124C200.65 139.76 200.823 139.275 200.823 138.668C200.823 138.033 200.655 137.529 200.319 137.156C199.992 136.773 199.507 136.582 198.863 136.582ZM212.336 142.098C211.43 142.098 210.595 141.888 209.83 141.468C209.074 141.039 208.472 140.446 208.024 139.69C207.585 138.925 207.366 138.066 207.366 137.114C207.366 136.162 207.585 135.308 208.024 134.552C208.472 133.796 209.074 133.208 209.83 132.788C210.595 132.359 211.43 132.144 212.336 132.144C213.25 132.144 214.086 132.359 214.842 132.788C215.607 133.208 216.209 133.796 216.648 134.552C217.086 135.308 217.306 136.162 217.306 137.114C217.306 138.066 217.086 138.925 216.648 139.69C216.209 140.446 215.607 141.039 214.842 141.468C214.086 141.888 213.25 142.098 212.336 142.098ZM212.336 140.712C212.98 140.712 213.554 140.567 214.058 140.278C214.562 139.979 214.954 139.559 215.234 139.018C215.523 138.467 215.668 137.833 215.668 137.114C215.668 136.395 215.523 135.765 215.234 135.224C214.954 134.683 214.562 134.267 214.058 133.978C213.554 133.689 212.98 133.544 212.336 133.544C211.692 133.544 211.118 133.689 210.614 133.978C210.11 134.267 209.713 134.683 209.424 135.224C209.144 135.765 209.004 136.395 209.004 137.114C209.004 137.833 209.144 138.467 209.424 139.018C209.713 139.559 210.11 139.979 210.614 140.278C211.118 140.567 211.692 140.712 212.336 140.712ZM226.086 132.27L222.866 138.472V142H221.27V138.472L218.036 132.27H219.814L222.068 137.044L224.322 132.27H226.086ZM233.219 140.012H229.145L228.445 142H226.779L230.265 132.256H232.113L235.599 142H233.919L233.219 140.012ZM232.771 138.71L231.189 134.188L229.593 138.71H232.771ZM243.4 132.27V133.572H240.81V142H239.214V133.572H236.61V132.27H243.4Z" fill="white"/>
<defs>
<filter id="filter0_f_132_1151" x="-10" y="63" width="395" height="252" filterUnits="userSpaceOnUse" color-interpolation-filters="sRGB">
<feFlood flood-opacity="0" result="BackgroundImageFix"/>
<feBlend mode="normal" in="SourceGraphic" in2="BackgroundImageFix" result="shape"/>
<feGaussianBlur stdDeviation="25" result="effect1_foregroundBlur_132_1151"/>
</filter>
<linearGradient id="paint0_linear_132_1151" x1="24" y1="0" x2="317.443" y2="325.274" gradientUnits="userSpaceOnUse">
<stop stop-color="#DF98FA"/>
<stop offset="1" stop-color="#9055FF"/>
</linearGradient>
<clipPath id="clip0_132_1151">
<rect x="24" width="327" height="257" rx="20" fill="white"/>
</clipPath>
</defs>
</svg>
