<svg width="37" height="36" viewBox="0 0 37 36" fill="none" xmlns="http://www.w3.org/2000/svg">
<g clip-path="url(#clip0_1582_290)">
<path d="M31.4531 12.6219V5.97656C31.4531 5.39409 30.9809 4.92188 30.3984 4.92188H23.7531L19.1192 0.307336C18.7076 -0.102445 18.0423 -0.102445 17.6307 0.307336L12.9969 4.92188H6.35156C5.76909 4.92188 5.29688 5.39409 5.29688 5.97656V12.6219L0.682336 17.2558C0.272555 17.6674 0.272555 18.3327 0.682336 18.7443L5.29688 23.3781V30.0234C5.29688 30.6059 5.76909 31.0781 6.35156 31.0781H12.9969L17.6307 35.6927C17.8365 35.8976 18.1058 36 18.375 36C18.6442 36 18.9135 35.8976 19.1192 35.6927L23.7531 31.0781H30.3984C30.9809 31.0781 31.4531 30.6059 31.4531 30.0234V23.3781L36.0677 18.7443C36.4774 18.3327 36.4774 17.6674 36.0677 17.2558L31.4531 12.6219ZM29.6511 22.1983C29.4543 22.396 29.3438 22.6635 29.3438 22.9425V28.9688H23.3175C23.0386 28.9688 22.771 29.0793 22.5734 29.2761L18.375 33.4569L14.1767 29.2761C13.979 29.0793 13.7115 28.9688 13.4325 28.9688H7.40625V22.9425C7.40625 22.6636 7.29572 22.396 7.09891 22.1984L2.91813 18L7.09891 13.8017C7.29572 13.604 7.40625 13.3365 7.40625 13.0575V7.03125H13.4325C13.7114 7.03125 13.979 6.92072 14.1766 6.72391L18.375 2.54313L22.5734 6.72391C22.7711 6.92072 23.0386 7.03125 23.3175 7.03125H29.3438V13.0575C29.3438 13.3364 29.4543 13.604 29.6511 13.8016L33.8319 18L29.6511 22.1983Z" fill="#A44AFF"/>
</g>
<path d="M15.5308 14.314H17.0848C17.1828 13.6 17.7008 12.928 18.8208 12.928C19.9128 12.928 20.4868 13.516 20.4868 14.398C20.4868 15.49 19.6048 15.91 18.1628 15.924H17.7848V17.24H18.1488C19.8148 17.24 20.6828 17.702 20.6828 19.046C20.6828 19.998 20.0948 20.726 18.9048 20.726C17.7008 20.726 17.0008 19.998 16.9308 19.046H15.3908C15.4888 21.048 16.9868 22.056 18.9188 22.056C21.0468 22.056 22.1948 20.824 22.1948 19.2C22.1948 17.786 21.5088 16.904 20.4448 16.582V16.526C21.2428 16.26 22.0128 15.434 22.0128 14.216C22.0128 12.732 20.9068 11.556 18.8768 11.556C17.0148 11.556 15.6427 12.55 15.5308 14.314Z" fill="white"/>
<defs>
<clipPath id="clip0_1582_290">
<rect width="36" height="36" fill="white" transform="translate(0.375)"/>
</clipPath>
</defs>
</svg>
