<svg width="326" height="131" viewBox="0 0 326 131" fill="none" xmlns="http://www.w3.org/2000/svg">
<g clip-path="url(#clip0_1584_213)">
<rect width="326" height="131" rx="10" fill="url(#paint0_linear_1584_213)"/>
<path opacity="0.25" d="M256.035 160C305.14 160 344.947 150.731 344.947 139.297C344.947 127.863 305.14 118.594 256.035 118.594C206.931 118.594 167.124 127.863 167.124 139.297C167.124 150.731 206.931 160 256.035 160Z" fill="#042030"/>
<path d="M325.667 39.3868L256.035 63.1985L186.333 39.3868L153 87.8582L256.035 123.117L359 87.8582L325.667 39.3868Z" fill="#4E2999"/>
<path opacity="0.45" d="M165.147 85.8797L250.598 118.594L221.219 89.4833C221.219 89.4833 172.986 77.8247 165.147 85.8797Z" fill="#240F4F"/>
<path opacity="0.45" d="M346.924 85.8797L261.473 118.594L290.851 89.4833C290.781 89.4833 339.014 77.8247 346.924 85.8797Z" fill="#240F4F"/>
<path d="M256.035 123.116L153 87.8582V92.4509L256.035 127.709L359 92.4509V87.8582L256.035 123.116Z" fill="#994EF8"/>
<path d="M201.163 144.314L213.098 113.012L251.516 126.155L201.163 144.314Z" fill="#3B1E77"/>
<path opacity="0.45" d="M204.482 135.27L251.516 126.155L213.098 113.012L204.482 135.27Z" fill="#3B1E77"/>
<path d="M256.035 124.53L201.163 144.314L205.259 148.624L256.035 130.536L306.741 148.624L310.907 144.314L256.035 124.53Z" fill="#994EF8"/>
<path d="M310.907 144.314L298.902 113.012L260.484 126.155L310.907 144.314Z" fill="#3B1E77"/>
<path opacity="0.45" d="M307.518 135.27L260.484 126.155L298.902 113.012L307.518 135.27Z" fill="#3B1E77"/>
<path d="M256.035 130.536C258.102 130.536 259.778 128.859 259.778 126.791C259.778 124.723 258.102 123.046 256.035 123.046C253.968 123.046 252.292 124.723 252.292 126.791C252.292 128.859 253.968 130.536 256.035 130.536Z" fill="white" fill-opacity="0.5"/>
<path d="M322.701 39.3868L256.035 72.596L189.37 39.3868C186.333 43.4143 161.898 84.1839 161.898 84.1839C162.181 84.1839 162.393 84.2546 162.675 84.2546C223.974 90.4019 240.993 109.691 246.643 114.355C252.292 119.089 256.106 118.594 256.106 118.594C256.106 118.594 259.919 119.089 265.569 114.355C271.219 109.691 288.238 90.4019 349.537 84.2546C349.819 84.2546 350.031 84.1839 350.314 84.1839C350.172 84.1839 325.667 43.4849 322.701 39.3868Z" fill="#F5B304"/>
<path d="M350.172 84.184C349.89 84.184 349.678 84.2546 349.396 84.2546C288.097 90.4019 271.077 109.692 265.428 114.355C259.778 119.089 255.965 118.594 255.965 118.594C255.965 118.594 252.151 119.089 246.502 114.355C240.852 109.692 223.832 90.4019 162.534 84.2546C162.251 84.2546 162.039 84.184 161.757 84.184C161.263 84.9612 161.757 85.5265 161.757 85.5265C223.691 91.5324 240.146 110.893 245.795 115.627C251.445 120.29 255.894 119.937 255.894 119.937C255.894 119.937 260.343 120.29 265.993 115.627C271.642 110.963 288.097 91.603 350.031 85.5265C350.172 85.5265 350.667 84.9612 350.172 84.184Z" fill="#994EF8"/>
<path d="M320.159 35.5006C286.049 27.3043 255.965 55.3555 255.965 55.3555C255.965 55.3555 225.88 27.3043 191.771 35.5006C191.771 35.5006 182.096 50.3388 168.748 75.5637C168.748 75.5637 235.908 83.1241 255.965 111.317C276.021 83.1241 343.181 75.5637 343.181 75.5637C329.834 50.3388 320.159 35.5006 320.159 35.5006Z" fill="#F5EFFB"/>
<path d="M343.181 75.5637C343.181 75.5637 276.021 83.1241 255.965 111.317C235.979 83.1241 168.819 75.5637 168.819 75.5637C168.819 75.5637 168.819 77.8248 165.076 82.2762C165.076 82.2762 226.022 86.657 248.196 111.953C253.422 117.888 255.965 117.181 255.965 117.181C255.965 117.181 258.578 117.888 263.733 111.953C285.837 86.657 346.853 82.2762 346.853 82.2762C343.181 77.7541 343.181 75.5637 343.181 75.5637Z" fill="#DFCBF4"/>
<path d="M316.345 38.4683C316.345 38.4683 290.851 31.9677 255.965 59.0297C221.149 32.0384 195.584 38.4683 195.584 38.4683L178.353 71.9602C230.753 75.5637 255.965 102.06 255.965 102.06C255.965 102.06 281.176 75.5637 333.577 71.9602L316.345 38.4683ZM256.035 98.8809C256.035 98.8809 232.448 74.7158 182.449 69.9817L196.926 39.8814C196.926 39.8814 221.996 35.006 256.035 60.5842C290.074 35.006 315.145 39.8814 315.145 39.8814L329.622 69.9817C279.623 74.7158 256.035 98.8809 256.035 98.8809Z" fill="#863ED5"/>
<path opacity="0.2" d="M262.462 84.2503C271.878 77.3022 301.303 61.9267 321.077 64.0465" stroke="#863ED5" stroke-width="3" stroke-linecap="round"/>
<path opacity="0.2" d="M262.462 64.753C270.819 58.2063 292.546 45.3792 312.602 46.4444" stroke="#863ED5" stroke-width="3" stroke-linecap="round"/>
<path opacity="0.2" d="M262.462 74.6451C271.525 67.5948 295.088 53.781 316.84 54.9282" stroke="#863ED5" stroke-width="3" stroke-linecap="round"/>
<path opacity="0.2" d="M250.456 84.2503C241.04 77.3022 211.615 61.9267 191.841 64.0465" stroke="#863ED5" stroke-width="3" stroke-linecap="round"/>
<path opacity="0.2" d="M250.456 64.753C242.1 58.2063 220.372 45.3792 200.316 46.4444" stroke="#863ED5" stroke-width="3" stroke-linecap="round"/>
<path opacity="0.2" d="M250.456 74.6451C241.393 67.5948 217.83 53.781 196.079 54.9282" stroke="#863ED5" stroke-width="3" stroke-linecap="round"/>
<path d="M256.035 55.3555C256.035 55.3555 256.742 52.8825 258.083 53.5891C258.083 53.5891 257.236 93.6521 258.648 109.268C259.001 113.154 262.391 118.453 263.733 120.432H261.967L261.473 122.057C261.473 122.057 256.247 113.224 256.035 109.762C254.976 94.2174 255.541 59.1004 256.035 55.3555Z" fill="#54DAF5"/>
</g>
<path d="M29.94 67.34H24.38L23.46 70H20.52L25.54 56.02H28.8L33.82 70H30.86L29.94 67.34ZM29.18 65.1L27.16 59.26L25.14 65.1H29.18ZM38.4964 55.2V70H35.6964V55.2H38.4964ZM49.7828 61.68V64.04H41.3028V61.68H49.7828ZM61.543 56.04V58.3H55.723V61.88H60.183V64.1H55.723V70H52.923V56.04H61.543ZM68.4484 70.18C67.3818 70.18 66.4218 69.9467 65.5684 69.48C64.7151 69 64.0418 68.3267 63.5484 67.46C63.0684 66.5933 62.8284 65.5933 62.8284 64.46C62.8284 63.3267 63.0751 62.3267 63.5684 61.46C64.0751 60.5933 64.7618 59.9267 65.6284 59.46C66.4951 58.98 67.4618 58.74 68.5284 58.74C69.5951 58.74 70.5618 58.98 71.4284 59.46C72.2951 59.9267 72.9751 60.5933 73.4684 61.46C73.9751 62.3267 74.2284 63.3267 74.2284 64.46C74.2284 65.5933 73.9684 66.5933 73.4484 67.46C72.9418 68.3267 72.2484 69 71.3684 69.48C70.5018 69.9467 69.5284 70.18 68.4484 70.18ZM68.4484 67.74C68.9551 67.74 69.4284 67.62 69.8684 67.38C70.3218 67.1267 70.6818 66.7533 70.9484 66.26C71.2151 65.7667 71.3484 65.1667 71.3484 64.46C71.3484 63.4067 71.0684 62.6 70.5084 62.04C69.9618 61.4667 69.2884 61.18 68.4884 61.18C67.6884 61.18 67.0151 61.4667 66.4684 62.04C65.9351 62.6 65.6684 63.4067 65.6684 64.46C65.6684 65.5133 65.9284 66.3267 66.4484 66.9C66.9818 67.46 67.6484 67.74 68.4484 67.74ZM79.5423 61.22V66.58C79.5423 66.9533 79.629 67.2267 79.8023 67.4C79.989 67.56 80.2957 67.64 80.7223 67.64H82.0223V70H80.2623C77.9023 70 76.7223 68.8533 76.7223 66.56V61.22H75.4023V58.92H76.7223V56.18H79.5423V58.92H82.0223V61.22H79.5423ZM85.4563 57.6C84.9629 57.6 84.5496 57.4467 84.2163 57.14C83.8963 56.82 83.7363 56.4267 83.7363 55.96C83.7363 55.4933 83.8963 55.1067 84.2163 54.8C84.5496 54.48 84.9629 54.32 85.4563 54.32C85.9496 54.32 86.3563 54.48 86.6763 54.8C87.0096 55.1067 87.1763 55.4933 87.1763 55.96C87.1763 56.4267 87.0096 56.82 86.6763 57.14C86.3563 57.4467 85.9496 57.6 85.4563 57.6ZM86.8363 58.92V70H84.0363V58.92H86.8363ZM95.8427 58.76C96.6827 58.76 97.4293 58.9467 98.0827 59.32C98.736 59.68 99.2427 60.22 99.6027 60.94C99.976 61.6467 100.163 62.5 100.163 63.5V70H97.3627V63.88C97.3627 63 97.1427 62.3267 96.7027 61.86C96.2627 61.38 95.6627 61.14 94.9027 61.14C94.1293 61.14 93.516 61.38 93.0627 61.86C92.6227 62.3267 92.4027 63 92.4027 63.88V70H89.6027V55.2H92.4027V60.3C92.7627 59.82 93.2427 59.4467 93.8427 59.18C94.4427 58.9 95.1093 58.76 95.8427 58.76ZM102.105 64.42C102.105 63.3 102.325 62.3067 102.765 61.44C103.219 60.5733 103.825 59.9067 104.585 59.44C105.359 58.9733 106.219 58.74 107.165 58.74C107.992 58.74 108.712 58.9067 109.325 59.24C109.952 59.5733 110.452 59.9933 110.825 60.5V58.92H113.645V70H110.825V68.38C110.465 68.9 109.965 69.3333 109.325 69.68C108.699 70.0133 107.972 70.18 107.145 70.18C106.212 70.18 105.359 69.94 104.585 69.46C103.825 68.98 103.219 68.3067 102.765 67.44C102.325 66.56 102.105 65.5533 102.105 64.42ZM110.825 64.46C110.825 63.78 110.692 63.2 110.425 62.72C110.159 62.2267 109.799 61.8533 109.345 61.6C108.892 61.3333 108.405 61.2 107.885 61.2C107.365 61.2 106.885 61.3267 106.445 61.58C106.005 61.8333 105.645 62.2067 105.365 62.7C105.099 63.18 104.965 63.7533 104.965 64.42C104.965 65.0867 105.099 65.6733 105.365 66.18C105.645 66.6733 106.005 67.0533 106.445 67.32C106.899 67.5867 107.379 67.72 107.885 67.72C108.405 67.72 108.892 67.5933 109.345 67.34C109.799 67.0733 110.159 66.7 110.425 66.22C110.692 65.7267 110.825 65.14 110.825 64.46Z" fill="white"/>
<g clip-path="url(#clip1_1584_213)">
<path d="M38.3437 22.2256H33.4894C32.6779 22.2251 31.8905 22.5009 31.2568 23.0077C30.6231 23.5145 30.1809 24.2221 30.0031 25.0138C29.8249 24.2223 29.3826 23.515 28.749 23.0083C28.1154 22.5016 27.3282 22.2256 26.5169 22.2256H21.6662C21.2242 22.2258 20.8003 22.4015 20.4878 22.714C20.1752 23.0266 19.9995 23.4505 19.9994 23.8925V32.4275C19.9995 32.8696 20.1752 33.2934 20.4878 33.606C20.8003 33.9186 21.2242 34.0942 21.6662 34.0944H24.7806C28.3294 34.0944 29.3881 34.9413 29.895 36.6988C29.9194 36.7963 30.0756 36.7963 30.1031 36.6988C30.6137 34.9419 31.6725 34.0944 35.2175 34.0944H38.3319C38.7739 34.0942 39.1978 33.9186 39.5103 33.606C39.8229 33.2934 39.9986 32.8696 39.9987 32.4275V23.8963C39.9987 23.4557 39.8247 23.033 39.5145 22.7202C39.2043 22.4074 38.783 22.2299 38.3425 22.2263L38.3437 22.2256ZM28.4025 31.4406C28.4027 31.4566 28.3996 31.4725 28.3936 31.4872C28.3876 31.502 28.3786 31.5155 28.3673 31.5268C28.3561 31.538 28.3426 31.547 28.3278 31.553C28.313 31.559 28.2972 31.5621 28.2812 31.5619H22.715C22.699 31.562 22.6832 31.5589 22.6685 31.5528C22.6537 31.5468 22.6403 31.5378 22.6291 31.5266C22.6178 31.5153 22.6089 31.5019 22.6028 31.4871C22.5967 31.4724 22.5937 31.4566 22.5937 31.4406V30.6456C22.5937 30.58 22.6456 30.5244 22.715 30.5244H28.2844C28.35 30.5244 28.4056 30.5763 28.4056 30.6456V31.4406H28.4025ZM28.4025 29.3263C28.4026 29.3422 28.3995 29.358 28.3934 29.3728C28.3874 29.3875 28.3784 29.4009 28.3672 29.4122C28.3559 29.4235 28.3425 29.4324 28.3277 29.4385C28.313 29.4445 28.2972 29.4476 28.2812 29.4475H22.715C22.699 29.4476 22.6832 29.4445 22.6685 29.4385C22.6537 29.4324 22.6403 29.4235 22.6291 29.4122C22.6178 29.4009 22.6089 29.3875 22.6028 29.3728C22.5967 29.358 22.5937 29.3422 22.5937 29.3263V28.5313C22.5937 28.465 22.6456 28.41 22.715 28.41H28.2844C28.35 28.41 28.4056 28.4619 28.4056 28.5313V29.3263H28.4025ZM28.4025 27.2119C28.4026 27.2278 28.3995 27.2436 28.3934 27.2584C28.3874 27.2731 28.3784 27.2865 28.3672 27.2978C28.3559 27.3091 28.3425 27.318 28.3277 27.3241C28.313 27.3302 28.2972 27.3332 28.2812 27.3331H22.715C22.699 27.3332 22.6832 27.3302 22.6685 27.3241C22.6537 27.318 22.6403 27.3091 22.6291 27.2978C22.6178 27.2865 22.6089 27.2731 22.6028 27.2584C22.5967 27.2436 22.5937 27.2278 22.5937 27.2119V26.4169C22.5937 26.3513 22.6456 26.2956 22.715 26.2956H28.2844C28.35 26.2956 28.4056 26.3475 28.4056 26.4169V27.2119H28.4025ZM37.4062 31.4375C37.4063 31.4535 37.4032 31.4693 37.3972 31.484C37.3911 31.4988 37.3822 31.5122 37.3709 31.5234C37.3596 31.5347 37.3462 31.5436 37.3315 31.5497C37.3167 31.5558 37.3009 31.5589 37.285 31.5588H31.7187C31.7028 31.5589 31.687 31.5558 31.6722 31.5497C31.6575 31.5436 31.6441 31.5347 31.6328 31.5234C31.6215 31.5122 31.6126 31.4988 31.6065 31.484C31.6005 31.4693 31.5974 31.4535 31.5975 31.4375V30.6425C31.5975 30.5769 31.6494 30.5213 31.7187 30.5213H37.2881C37.3544 30.5213 37.4094 30.5731 37.4094 30.6425V31.4375H37.4062ZM37.4062 29.3231C37.4064 29.3391 37.4034 29.355 37.3973 29.3697C37.3913 29.3845 37.3824 29.398 37.3711 29.4093C37.3598 29.4205 37.3464 29.4295 37.3316 29.4355C37.3168 29.4415 37.301 29.4446 37.285 29.4444H31.7187C31.7028 29.4445 31.687 29.4414 31.6722 29.4353C31.6575 29.4293 31.6441 29.4203 31.6328 29.4091C31.6215 29.3978 31.6126 29.3844 31.6065 29.3696C31.6005 29.3549 31.5974 29.3391 31.5975 29.3231V28.5281C31.5975 28.4625 31.6494 28.4069 31.7187 28.4069H37.2881C37.3544 28.4069 37.4094 28.4588 37.4094 28.5281V29.3231H37.4062ZM37.4062 27.2081C37.4063 27.2241 37.4032 27.2399 37.3972 27.2546C37.3911 27.2694 37.3822 27.2828 37.3709 27.2941C37.3596 27.3053 37.3462 27.3143 37.3315 27.3203C37.3167 27.3264 37.3009 27.3295 37.285 27.3294H31.7187C31.7028 27.3295 31.687 27.3264 31.6722 27.3203C31.6575 27.3143 31.6441 27.3053 31.6328 27.2941C31.6215 27.2828 31.6126 27.2694 31.6065 27.2546C31.6005 27.2399 31.5974 27.2241 31.5975 27.2081V26.4163C31.5975 26.3506 31.6494 26.295 31.7187 26.295H37.2881C37.3544 26.295 37.4094 26.3469 37.4094 26.4163V27.2081H37.4062Z" fill="white"/>
</g>
<path d="M54.916 32.012H50.842L50.142 34H48.476L51.962 24.256H53.81L57.296 34H55.616L54.916 32.012ZM54.468 30.71L52.886 26.188L51.29 30.71H54.468ZM61.7937 32.572L63.9777 26.286H65.6717L62.7317 34H60.8277L57.9017 26.286H59.6097L61.7937 32.572ZM69.8601 32.572L72.0441 26.286H73.7381L70.7981 34H68.8941L65.9681 26.286H67.6761L69.8601 32.572ZM74.4125 30.108C74.4125 29.3333 74.5712 28.6473 74.8885 28.05C75.2152 27.4527 75.6539 26.9907 76.2045 26.664C76.7645 26.328 77.3805 26.16 78.0525 26.16C78.6592 26.16 79.1865 26.2813 79.6345 26.524C80.0919 26.7573 80.4559 27.0513 80.7265 27.406V26.286H82.3365V34H80.7265V32.852C80.4559 33.216 80.0872 33.5193 79.6205 33.762C79.1539 34.0047 78.6219 34.126 78.0245 34.126C77.3619 34.126 76.7552 33.958 76.2045 33.622C75.6539 33.2767 75.2152 32.8007 74.8885 32.194C74.5712 31.578 74.4125 30.8827 74.4125 30.108ZM80.7265 30.136C80.7265 29.604 80.6145 29.142 80.3905 28.75C80.1759 28.358 79.8912 28.0593 79.5365 27.854C79.1819 27.6487 78.7992 27.546 78.3885 27.546C77.9779 27.546 77.5952 27.6487 77.2405 27.854C76.8859 28.05 76.5965 28.344 76.3725 28.736C76.1579 29.1187 76.0505 29.576 76.0505 30.108C76.0505 30.64 76.1579 31.1067 76.3725 31.508C76.5965 31.9093 76.8859 32.2173 77.2405 32.432C77.6045 32.6373 77.9872 32.74 78.3885 32.74C78.7992 32.74 79.1819 32.6373 79.5365 32.432C79.8912 32.2267 80.1759 31.928 80.3905 31.536C80.6145 31.1347 80.7265 30.668 80.7265 30.136ZM86.0288 23.64V34H84.4328V23.64H86.0288ZM96.9689 29.002C97.4916 29.0953 97.9349 29.3707 98.2989 29.828C98.6629 30.2853 98.8449 30.8033 98.8449 31.382C98.8449 31.8767 98.7143 32.3247 98.4529 32.726C98.2009 33.118 97.8323 33.4307 97.3469 33.664C96.8616 33.888 96.2969 34 95.6529 34H91.7609V24.27H95.4709C96.1336 24.27 96.7029 24.382 97.1789 24.606C97.6549 24.83 98.0143 25.1333 98.2569 25.516C98.4996 25.8893 98.6209 26.3093 98.6209 26.776C98.6209 27.336 98.4716 27.8027 98.1729 28.176C97.8743 28.5493 97.4729 28.8247 96.9689 29.002ZM93.3569 28.358H95.3309C95.8536 28.358 96.2596 28.2413 96.5489 28.008C96.8476 27.7653 96.9969 27.42 96.9969 26.972C96.9969 26.5333 96.8476 26.1927 96.5489 25.95C96.2596 25.698 95.8536 25.572 95.3309 25.572H93.3569V28.358ZM95.5129 32.698C96.0543 32.698 96.4789 32.5673 96.7869 32.306C97.0949 32.0447 97.2489 31.6807 97.2489 31.214C97.2489 30.738 97.0856 30.36 96.7589 30.08C96.4323 29.8 95.9983 29.66 95.4569 29.66H93.3569V32.698H95.5129ZM107.565 26.286V34H105.969V33.09C105.717 33.4073 105.386 33.6593 104.975 33.846C104.574 34.0233 104.145 34.112 103.687 34.112C103.081 34.112 102.535 33.986 102.049 33.734C101.573 33.482 101.195 33.1087 100.915 32.614C100.645 32.1193 100.509 31.522 100.509 30.822V26.286H102.091V30.584C102.091 31.2747 102.264 31.8067 102.609 32.18C102.955 32.544 103.426 32.726 104.023 32.726C104.621 32.726 105.092 32.544 105.437 32.18C105.792 31.8067 105.969 31.2747 105.969 30.584V26.286H107.565ZM113.563 26.16C114.17 26.16 114.711 26.286 115.187 26.538C115.672 26.79 116.05 27.1633 116.321 27.658C116.592 28.1527 116.727 28.75 116.727 29.45V34H115.145V29.688C115.145 28.9973 114.972 28.47 114.627 28.106C114.282 27.7327 113.81 27.546 113.213 27.546C112.616 27.546 112.14 27.7327 111.785 28.106C111.44 28.47 111.267 28.9973 111.267 29.688V34H109.671V26.286H111.267V27.168C111.528 26.8507 111.86 26.6033 112.261 26.426C112.672 26.2487 113.106 26.16 113.563 26.16ZM119.575 25.264C119.286 25.264 119.043 25.166 118.847 24.97C118.651 24.774 118.553 24.5313 118.553 24.242C118.553 23.9527 118.651 23.71 118.847 23.514C119.043 23.318 119.286 23.22 119.575 23.22C119.855 23.22 120.093 23.318 120.289 23.514C120.485 23.71 120.583 23.9527 120.583 24.242C120.583 24.5313 120.485 24.774 120.289 24.97C120.093 25.166 119.855 25.264 119.575 25.264ZM120.359 26.286V34H118.763V26.286H120.359ZM130.529 34.098C129.624 34.098 128.788 33.888 128.023 33.468C127.267 33.0387 126.665 32.446 126.217 31.69C125.778 30.9247 125.559 30.066 125.559 29.114C125.559 28.162 125.778 27.308 126.217 26.552C126.665 25.796 127.267 25.208 128.023 24.788C128.788 24.3587 129.624 24.144 130.529 24.144C131.444 24.144 132.279 24.3587 133.035 24.788C133.8 25.208 134.402 25.796 134.841 26.552C135.28 27.308 135.499 28.162 135.499 29.114C135.499 30.066 135.28 30.9247 134.841 31.69C134.402 32.446 133.8 33.0387 133.035 33.468C132.279 33.888 131.444 34.098 130.529 34.098ZM130.529 32.712C131.173 32.712 131.747 32.5673 132.251 32.278C132.755 31.9793 133.147 31.5593 133.427 31.018C133.716 30.4673 133.861 29.8327 133.861 29.114C133.861 28.3953 133.716 27.7653 133.427 27.224C133.147 26.6827 132.755 26.2673 132.251 25.978C131.747 25.6887 131.173 25.544 130.529 25.544C129.885 25.544 129.311 25.6887 128.807 25.978C128.303 26.2673 127.906 26.6827 127.617 27.224C127.337 27.7653 127.197 28.3953 127.197 29.114C127.197 29.8327 127.337 30.4673 127.617 31.018C127.906 31.5593 128.303 31.9793 128.807 32.278C129.311 32.5673 129.885 32.712 130.529 32.712ZM136.538 30.108C136.538 29.3333 136.696 28.6473 137.014 28.05C137.34 27.4527 137.779 26.9907 138.33 26.664C138.89 26.328 139.51 26.16 140.192 26.16C140.789 26.16 141.316 26.2813 141.774 26.524C142.24 26.7667 142.6 27.0607 142.852 27.406V26.286H144.462V37.668H142.852V32.88C142.6 33.2253 142.236 33.5193 141.76 33.762C141.284 34.0047 140.742 34.126 140.136 34.126C139.473 34.126 138.866 33.958 138.316 33.622C137.774 33.2767 137.34 32.8007 137.014 32.194C136.696 31.578 136.538 30.8827 136.538 30.108ZM142.852 30.136C142.852 29.604 142.74 29.142 142.516 28.75C142.301 28.358 142.016 28.0593 141.662 27.854C141.307 27.6487 140.924 27.546 140.514 27.546C140.103 27.546 139.72 27.6487 139.366 27.854C139.011 28.05 138.722 28.344 138.498 28.736C138.283 29.1187 138.176 29.576 138.176 30.108C138.176 30.64 138.283 31.1067 138.498 31.508C138.722 31.9093 139.011 32.2173 139.366 32.432C139.73 32.6373 140.112 32.74 140.514 32.74C140.924 32.74 141.307 32.6373 141.662 32.432C142.016 32.2267 142.301 31.928 142.516 31.536C142.74 31.1347 142.852 30.668 142.852 30.136ZM147.37 25.264C147.08 25.264 146.838 25.166 146.642 24.97C146.446 24.774 146.348 24.5313 146.348 24.242C146.348 23.9527 146.446 23.71 146.642 23.514C146.838 23.318 147.08 23.22 147.37 23.22C147.65 23.22 147.888 23.318 148.084 23.514C148.28 23.71 148.378 23.9527 148.378 24.242C148.378 24.5313 148.28 24.774 148.084 24.97C147.888 25.166 147.65 25.264 147.37 25.264ZM148.154 26.286V34H146.558V26.286H148.154ZM154.141 26.16C154.748 26.16 155.289 26.286 155.765 26.538C156.251 26.79 156.629 27.1633 156.899 27.658C157.17 28.1527 157.305 28.75 157.305 29.45V34H155.723V29.688C155.723 28.9973 155.551 28.47 155.205 28.106C154.86 27.7327 154.389 27.546 153.791 27.546C153.194 27.546 152.718 27.7327 152.363 28.106C152.018 28.47 151.845 28.9973 151.845 29.688V34H150.249V26.286H151.845V27.168C152.107 26.8507 152.438 26.6033 152.839 26.426C153.25 26.2487 153.684 26.16 154.141 26.16ZM162.449 26.16C163.046 26.16 163.574 26.2813 164.031 26.524C164.498 26.7573 164.862 27.0513 165.123 27.406V26.286H166.733V34.126C166.733 34.8353 166.584 35.4653 166.285 36.016C165.986 36.576 165.552 37.0147 164.983 37.332C164.423 37.6493 163.751 37.808 162.967 37.808C161.922 37.808 161.054 37.5607 160.363 37.066C159.672 36.5807 159.28 35.918 159.187 35.078H160.769C160.89 35.4793 161.147 35.8013 161.539 36.044C161.94 36.296 162.416 36.422 162.967 36.422C163.611 36.422 164.129 36.226 164.521 35.834C164.922 35.442 165.123 34.8727 165.123 34.126V32.838C164.852 33.202 164.484 33.51 164.017 33.762C163.56 34.0047 163.037 34.126 162.449 34.126C161.777 34.126 161.161 33.958 160.601 33.622C160.05 33.2767 159.612 32.8007 159.285 32.194C158.968 31.578 158.809 30.8827 158.809 30.108C158.809 29.3333 158.968 28.6473 159.285 28.05C159.612 27.4527 160.05 26.9907 160.601 26.664C161.161 26.328 161.777 26.16 162.449 26.16ZM165.123 30.136C165.123 29.604 165.011 29.142 164.787 28.75C164.572 28.358 164.288 28.0593 163.933 27.854C163.578 27.6487 163.196 27.546 162.785 27.546C162.374 27.546 161.992 27.6487 161.637 27.854C161.282 28.05 160.993 28.344 160.769 28.736C160.554 29.1187 160.447 29.576 160.447 30.108C160.447 30.64 160.554 31.1067 160.769 31.508C160.993 31.9093 161.282 32.2173 161.637 32.432C162.001 32.6373 162.384 32.74 162.785 32.74C163.196 32.74 163.578 32.6373 163.933 32.432C164.288 32.2267 164.572 31.928 164.787 31.536C165.011 31.1347 165.123 30.668 165.123 30.136Z" fill="white"/>
<defs>
<linearGradient id="paint0_linear_1584_213" x1="0" y1="0" x2="90.6452" y2="225.575" gradientUnits="userSpaceOnUse">
<stop stop-color="#DF98FA"/>
<stop offset="1" stop-color="#9055FF"/>
</linearGradient>
<clipPath id="clip0_1584_213">
<rect width="326" height="131" rx="10" fill="white"/>
</clipPath>
<clipPath id="clip1_1584_213">
<rect width="20" height="20" fill="white" transform="translate(20 19.5)"/>
</clipPath>
</defs>
</svg>
